<?xml version="1.0" encoding="UTF-8" standalone="no"?>
<!-- Created with Inkscape (http://www.inkscape.org/) -->

<svg
   xmlns:dc="http://purl.org/dc/elements/1.1/"
   xmlns:cc="http://creativecommons.org/ns#"
   xmlns:rdf="http://www.w3.org/1999/02/22-rdf-syntax-ns#"
   xmlns:svg="http://www.w3.org/2000/svg"
   xmlns="http://www.w3.org/2000/svg"
   xmlns:sodipodi="http://sodipodi.sourceforge.net/DTD/sodipodi-0.dtd"
   xmlns:inkscape="http://www.inkscape.org/namespaces/inkscape"
   width="682.62164"
   height="163.1279"
   id="svg2"
   version="1.1"
   inkscape:version="0.48.4 r9939"
   sodipodi:docname="norlab_logo_text_dark.svg">
  <defs
     id="defs4">
    <marker
       inkscape:stockid="TriangleOutL"
       orient="auto"
       refY="0"
       refX="0"
       id="TriangleOutL"
       style="overflow:visible">
      <path
         id="path4035"
         d="m 5.77,0 -8.65,5 0,-10 8.65,5 z"
         style="fill-rule:evenodd;stroke:#000000;stroke-width:1pt"
         transform="scale(0.8,0.8)"
         inkscape:connector-curvature="0" />
    </marker>
    <marker
       inkscape:stockid="Arrow2Lend"
       orient="auto"
       refY="0"
       refX="0"
       id="Arrow2Lend"
       style="overflow:visible">
      <path
         id="path3914"
         style="fill-rule:evenodd;stroke-width:0.625;stroke-linejoin:round"
         d="M 8.7185878,4.0337352 -2.2072895,0.01601326 8.7185884,-4.0017078 c -1.7454984,2.3720609 -1.7354408,5.6174519 -6e-7,8.035443 z"
         transform="matrix(-1.1,0,0,-1.1,-1.1,0)"
         inkscape:connector-curvature="0" />
    </marker>
    <marker
       inkscape:stockid="Arrow1Lend"
       orient="auto"
       refY="0"
       refX="0"
       id="Arrow1Lend"
       style="overflow:visible">
      <path
         id="path3896"
         d="M 0,0 5,-5 -12.5,0 5,5 0,0 z"
         style="fill-rule:evenodd;stroke:#000000;stroke-width:1pt"
         transform="matrix(-0.8,0,0,-0.8,-10,0)"
         inkscape:connector-curvature="0" />
    </marker>
  </defs>
  <sodipodi:namedview
     id="base"
     pagecolor="#ffffff"
     bordercolor="#666666"
     borderopacity="1.0"
     inkscape:pageopacity="0.0"
     inkscape:pageshadow="2"
     inkscape:zoom="0.98994949"
     inkscape:cx="505.20297"
     inkscape:cy="83.166212"
     inkscape:document-units="px"
     inkscape:current-layer="layer1"
     showgrid="false"
     inkscape:window-width="2815"
     inkscape:window-height="1596"
     inkscape:window-x="65"
     inkscape:window-y="24"
     inkscape:window-maximized="1"
     fit-margin-top="20"
     fit-margin-left="20"
     fit-margin-right="20"
     fit-margin-bottom="20"
     showguides="true"
     inkscape:guide-bbox="true"
     inkscape:snap-to-guides="true"
     inkscape:snap-center="true"
     borderlayer="true" />
  <metadata
     id="metadata7">
    <rdf:RDF>
      <cc:Work
         rdf:about="">
        <dc:format>image/svg+xml</dc:format>
        <dc:type
           rdf:resource="http://purl.org/dc/dcmitype/StillImage" />
        <dc:title />
      </cc:Work>
    </rdf:RDF>
  </metadata>
  <g
     inkscape:groupmode="layer"
     id="layer3"
     inkscape:label="background"
     style="display:inline"
     transform="translate(-28.622984,-435.83682)" />
  <g
     inkscape:label="Layer 1"
     inkscape:groupmode="layer"
     id="layer1"
     transform="translate(-28.622984,-435.83682)">
    <flowRoot
       xml:space="preserve"
       id="flowRoot5160"
       style="font-size:40px;font-style:normal;font-variant:normal;font-weight:500;font-stretch:normal;text-indent:0;text-align:center;text-decoration:none;line-height:100%;letter-spacing:0px;word-spacing:0px;text-transform:none;direction:ltr;block-progression:tb;writing-mode:lr-tb;text-anchor:middle;baseline-shift:baseline;color:#000000;fill:#000000;fill-opacity:1;fill-rule:nonzero;stroke:none;stroke-width:1px;marker:none;visibility:visible;display:inline;overflow:visible;enable-background:accumulate;font-family:CMU Serif;-inkscape-font-specification:CMU Serif Medium"
       transform="translate(0.6882869,-0.85234398)"><flowRegion
         id="flowRegion5162"><rect
           id="rect5164"
           width="538.41132"
           height="61.114227"
           x="170.21071"
           y="619.67145" /></flowRegion><flowPara
         id="flowPara5166" /></flowRoot>    <g
       id="g4877"
       transform="translate(13.230166,24.512726)">
      <g
         id="g3426"
         transform="matrix(0.1853055,0.32095854,-0.32095854,0.1853055,121.71937,374.58813)">
        <g
           id="g5767">
          <path
             style="fill:#515151;fill-opacity:1;fill-rule:evenodd;stroke:none"
             d="m 540.83061,427.13602 -7.27147,22.4232 c -7.9045,1.30409 -15.57711,3.26153 -22.99816,5.78336 L 492.33155,439.6159 c -7.60032,4.07874 -25.45224,14.07478 -32.33271,18.09414 l 4.90402,23.06581 c -6.10784,5.02857 -11.79694,10.52675 -17.01187,16.47073 l -23.64076,-4.49817 c -4.5427,7.33247 -15.02451,24.9043 -18.97348,31.8254 l 15.7605,17.48537 c -2.76058,7.34735 -4.94007,14.9741 -6.4936,22.82905 l -22.69377,7.91408 c -0.26787,8.62145 -0.54795,29.06546 -0.50731,37.0338 l 22.38938,7.3053 c 1.30376,7.90447 3.26173,15.57711 5.78336,22.99816 l -15.72668,18.1956 c 4.07875,7.60034 14.07478,25.45225 18.09414,32.33271 l 23.06581,-4.8702 c 5.03861,6.12007 10.54702,11.82225 16.50456,17.0457 l -4.53199,23.60693 c 7.33247,4.54271 24.90429,14.99069 31.82539,18.93967 l 17.51919,-15.72669 c 7.34741,2.75876 14.97525,4.93925 22.82906,6.4936 l 7.91407,22.69377 c 8.62147,0.26786 29.06547,0.54797 37.03381,0.50732 l 7.27147,-22.38939 c 7.9152,-1.30553 15.60161,-3.25673 23.03198,-5.78336 l 18.19561,15.69286 c 7.60034,-4.07876 25.45224,-14.07476 32.33271,-18.09414 l -4.90402,-23.0658 c 6.10606,-5.02859 11.79757,-10.52834 17.01187,-16.47074 l 23.64076,4.49817 c 4.54271,-7.33249 15.02451,-24.90428 18.97348,-31.8254 l -15.7605,-17.48537 c 2.76022,-7.34563 4.93955,-14.97488 6.4936,-22.82905 l 22.69377,-7.91408 c 0.26787,-8.62147 0.54795,-29.06545 0.50731,-37.0338 l -22.38939,-7.3053 c -1.30402,-7.89812 -3.26335,-15.58274 -5.78336,-22.99816 l 15.72669,-18.1956 c -4.07875,-7.60035 -14.07478,-25.45223 -18.09414,-32.33271 l -23.09963,4.8702 c -5.02107,-6.09391 -10.53825,-11.77163 -16.47074,-16.97805 l 4.53199,-23.67458 c -7.33246,-4.54272 -24.90429,-14.99068 -31.82539,-18.93966 l -17.51919,15.72668 c -7.34551,-2.75914 -14.97405,-4.94431 -22.82906,-6.4936 l -7.91407,-22.69377 c -8.62144,-0.26787 -29.06547,-0.54795 -37.03381,-0.50731 z"
             id="path3428"
             inkscape:connector-curvature="0"
             transform="translate(-314.40998,-375.77674)" />
          <path
             transform="matrix(1.0461574,0,0,1.0461574,17.93282,5.28453)"
             style="fill:none;stroke:#eaeaea;stroke-width:4.77939558;stroke-linecap:butt;stroke-linejoin:miter;stroke-miterlimit:4;stroke-opacity:1"
             d="m 345.47217,202.8239 c 0,71.96805 -58.34163,130.30968 -130.30968,130.30968 -71.96805,0 -130.309676,-58.34163 -130.309676,-130.30968 0,-71.96805 58.341626,-130.309679 130.309676,-130.309679 71.96805,0 130.30968,58.341629 130.30968,130.309679 z"
             id="path3430" />
          <g
             id="g3432">
            <path
               style="font-size:medium;font-style:normal;font-variant:normal;font-weight:normal;font-stretch:normal;text-indent:0;text-align:start;text-decoration:none;line-height:normal;letter-spacing:normal;word-spacing:normal;text-transform:none;direction:ltr;block-progression:tb;writing-mode:lr-tb;text-anchor:start;baseline-shift:baseline;color:#000000;fill:#eaeaea;fill-opacity:1;stroke:none;stroke-width:12.55508518;marker:none;visibility:visible;display:inline;overflow:visible;enable-background:accumulate;font-family:Sans;-inkscape-font-specification:Sans"
               d="m 87.9375,451.15625 0,2.3125 0,7.5625 -4.03125,-2.96875 -1.78125,-1.3125 -2.65625,3.59375 1.8125,1.3125 6.65625,4.90625 0,3.9375 -7.4375,-4.90625 -1.875,-1.21875 -2.4375,3.6875 1.84375,1.21875 9.90625,6.53125 0,3.625 -9.28125,-5.34375 a 2.2238884,2.2238884 0 0 0 -1.0625,-0.3125 2.2238884,2.2238884 0 0 0 -2.4375,2.25 l 0,10.75 L 72,484.96875 71.3125,473.125 l -0.125,-2.21875 -4.4375,0.25 0.125,2.21875 0.53125,8.90625 L 64,480.3125 l -0.90625,-8.21875 -0.25,-2.21875 -4.40625,0.5 0.21875,2.21875 0.5625,4.96875 -6.5625,-3.78125 -2,-1.15625 -2.3125,4.03125 2,1.15625 6.53125,3.78125 -4.5625,2 -2.03125,0.90625 1.78125,4.0625 2.03125,-0.875 7.5625,-3.3125 3.40625,1.96875 -7.96875,3.96875 -1.96875,1 2,3.96875 1.96875,-1 10.5625,-5.28125 3.15625,1.8125 -9.28125,5.34375 a 2.2238884,2.2238884 0 0 0 -0.28125,0.1875 2.2238884,2.2238884 0 0 0 -0.03125,0.0312 2.2238884,2.2238884 0 0 0 -0.03125,0.0312 2.2238884,2.2238884 0 0 0 0.3125,3.75 l 9.28125,5.34375 -3.125,1.8125 -10.59375,-5.28125 -2,-1 -2,3.96875 2,1 7.96875,4 -3.40625,1.96875 -7.5625,-3.34375 -2.03125,-0.875 -1.78125,4.0625 2.03125,0.90625 4.59375,2 -6.5625,3.78125 -2.03125,1.15625 2.34375,4.03125 2,-1.15625 6.5625,-3.78125 -0.5625,4.96875 -0.25,2.21875 4.4375,0.46875 0.25,-2.1875 0.90625,-8.25 L 67.375,514 l -0.53125,8.9375 -0.125,2.21875 4.40625,0.25 0.15625,-2.21875 L 72,511.34375 l 3.125,-1.8125 0,10.75 a 2.2238884,2.2238884 0 0 0 0.9375,1.90625 2.2238884,2.2238884 0 0 0 0.03125,0 2.2238884,2.2238884 0 0 0 0.15625,0.125 2.2238884,2.2238884 0 0 0 0.03125,0 2.2238884,2.2238884 0 0 0 0.15625,0.0937 2.2238884,2.2238884 0 0 0 0.03125,0 2.2238884,2.2238884 0 0 0 0.375,0.15625 2.2238884,2.2238884 0 0 0 0.0625,0 2.2238884,2.2238884 0 0 0 0.15625,0.0312 2.2238884,2.2238884 0 0 0 0.90625,-0.0625 2.2238884,2.2238884 0 0 0 0.1875,-0.0625 2.2238884,2.2238884 0 0 0 0.21875,-0.0937 2.2238884,2.2238884 0 0 0 0.03125,0 2.2238884,2.2238884 0 0 0 0.15625,-0.0625 l 9.28125,-5.34375 0,3.59375 -9.90625,6.53125 -1.84375,1.21875 2.4375,3.71875 1.875,-1.21875 7.4375,-4.90625 0,3.90625 -6.65625,4.9375 -1.8125,1.3125 2.65625,3.5625 1.78125,-1.3125 4.03125,-2.96875 0,7.59375 0,2.3125 4.65625,0 0,-2.3125 0,-7.59375 4.03125,2.96875 1.78125,1.3125 2.625,-3.5625 -1.78125,-1.34375 -6.65625,-4.90625 0,-3.90625 7.4375,4.90625 1.875,1.21875 2.4375,-3.71875 -1.84375,-1.21875 -9.90625,-6.53125 0,-3.59375 9.28125,5.34375 a 2.2238884,2.2238884 0 0 0 0.15625,0.0625 2.2238884,2.2238884 0 0 0 0.0625,0.0625 2.2238884,2.2238884 0 0 0 0.34375,0.125 2.2238884,2.2238884 0 0 0 0.0625,0 2.2238884,2.2238884 0 0 0 2.84375,-2.21875 l 0.0312,-10.71875 3.125,1.8125 0.71875,11.8125 0.125,2.25 4.4375,-0.28125 -0.15625,-2.21875 -0.5,-8.90625 3.40625,1.96875 0.90625,8.21875 0.25,2.21875 L 122,526 l -0.25,-2.21875 -0.53125,-4.9375 6.5625,3.78125 2,1.15625 2.3125,-4.03125 -2,-1.15625 -6.5625,-3.78125 4.59375,-2.03125 2.03125,-0.875 -1.78125,-4.09375 -2.03125,0.90625 -7.59375,3.3125 -3.40625,-1.96875 8,-3.96875 1.96875,-1 -2,-3.96875 -1.96875,0.96875 -10.59375,5.3125 -3.125,-1.8125 9.25,-5.375 a 2.2238884,2.2238884 0 0 0 0.8125,-3.0625 2.2238884,2.2238884 0 0 0 -3.03125,-0.78125 l -11.5,6.65625 -10.25,-5.9375 0.03125,-0.0625 -0.34375,-0.1875 0,-12.28125 11.5,-6.625 a 2.2238884,2.2238884 0 0 0 0.84375,-3.09375 2.2238884,2.2238884 0 0 0 -3.0625,-0.78125 l -9.28125,5.34375 0,-3.5625 9.90625,-6.5625 1.84375,-1.21875 -2.46875,-3.6875 -1.84375,1.21875 -7.4375,4.90625 0,-3.90625 6.65625,-4.9375 1.78125,-1.3125 -2.625,-3.59375 -1.78125,1.3125 -4.03125,2.96875 0,-7.5625 0,-2.3125 -4.65625,0 z m -8.3125,28.625 8.3125,4.8125 0,9.5625 -8.34375,-4.8125 0.03125,-9.5625 z m -2.375,13.59375 8.28125,4.78125 -8.3125,4.78125 -8.28125,-4.75 8.3125,-4.8125 z m 10.59375,8.8125 0,9.65625 -8.28125,4.75 0,-9.625 8.28125,-4.78125 z M 92.5,502.25 l 8.34375,4.8125 -0.0312,9.5625 -8.3125,-4.78125 0,-9.59375 z"
               id="path3436"
               transform="matrix(1.3491235,-2.3367504,2.3367504,1.3491235,-1043.9365,-244.20233)"
               inkscape:connector-curvature="0" />
            <g
               id="g5867">
              <path
                 style="color:#000000;fill:#515151;fill-opacity:1;stroke:#eaeaea;stroke-width:4;stroke-linecap:butt;stroke-linejoin:miter;stroke-miterlimit:4;stroke-opacity:1;stroke-dasharray:none;stroke-dashoffset:0;marker:none;visibility:visible;display:inline;overflow:visible;enable-background:accumulate"
                 d="m 249.39008,207.59863 c 0.0595,-37.91667 23.46978,-16.55982 37.99905,-52.66518 11.86163,-39.85163 -39.33316,-71.138793 -42.94196,-89.231733 -3.6088,18.15608 -61.23217,49.380103 -49.37054,89.231733 14.52927,36.10536 39.5967,14.08333 39.65625,52 z"
                 id="path3535"
                 inkscape:connector-curvature="0"
                 sodipodi:nodetypes="cccccc" />
              <path
                 transform="matrix(1.3491235,-2.3367504,2.3367504,1.3491235,-1043.9365,-244.20233)"
                 id="path3537"
                 d="m 117.625,469.90625 -0.25,2.21875 -0.90625,8.21875 -3.40625,1.96875 0.53125,-8.90625 0.125,-2.21875 -4.4375,-0.25 -0.125,2.21875 -0.71875,11.8125 -3.09375,1.78125 -0.0312,-10.6875 -4.4375,0 0,13.28125 -11.3125,6.53125 -2.03125,1.1875 2.34375,4.03125 2,-1.1875 11.375,-6.5625 11.40625,6.59375 2.21875,-3.875 -9.15625,-5.28125 3.125,-1.8125 10.46875,5.25 2,0.96875 1.96875,-3.96875 -1.96875,-1 -7.84375,-3.90625 3.40625,-1.96875 7.4375,3.25 2.03125,0.875 1.78125,-4.0625 -2.03125,-0.875 -4.40625,-1.9375 6.46875,-3.75 2,-1.1875 -2.3125,-4.03125 -2.03125,1.1875 -6.5625,3.78125 0.5625,-4.96875 0.25,-2.21875 -4.4375,-0.5 z"
                 style="font-size:medium;font-style:normal;font-variant:normal;font-weight:normal;font-stretch:normal;text-indent:0;text-align:start;text-decoration:none;line-height:normal;letter-spacing:normal;word-spacing:normal;text-transform:none;direction:ltr;block-progression:tb;writing-mode:lr-tb;text-anchor:start;baseline-shift:baseline;color:#000000;fill:#eaeaea;fill-opacity:1;stroke:none;stroke-width:12.55508518;marker:none;visibility:visible;display:inline;overflow:visible;enable-background:accumulate;font-family:Sans;-inkscape-font-specification:Sans"
                 inkscape:connector-curvature="0" />
            </g>
          </g>
        </g>
        <path
           sodipodi:nodetypes="cc"
           inkscape:connector-curvature="0"
           id="path3555"
           transform="matrix(1.3491235,-2.3367504,2.3367504,1.3491235,-1411.2353,-417.68669)"
           d="m 165.96875,681.28125 c 10.21986,-19.86565 10.89207,-44.14479 0,-65.25"
           style="fill:none;stroke:#515151;stroke-width:2.61185431;stroke-linecap:butt;stroke-linejoin:miter;stroke-miterlimit:4;stroke-opacity:1;stroke-dasharray:none" />
      </g>
      <g
         style="font-size:40px;font-style:normal;font-variant:normal;font-weight:normal;font-stretch:normal;text-indent:0;text-align:center;text-decoration:none;line-height:125%;letter-spacing:0px;word-spacing:0px;text-transform:none;direction:ltr;block-progression:tb;writing-mode:lr-tb;text-anchor:middle;baseline-shift:baseline;color:#000000;fill:#515151;fill-opacity:1;fill-rule:nonzero;stroke:none;stroke-width:1px;marker:none;visibility:visible;display:inline;overflow:visible;enable-background:accumulate;font-family:Ubuntu;-inkscape-font-specification:Ubuntu"
         id="text3557">
        <path
           d="m 195.8534,475.89995 0,2.905 c -2e-5,0.53667 -0.26835,0.805 -0.805,0.805 l -13.23,0 c -0.39667,0 -0.665,-0.07 -0.805,-0.21 -0.11667,-0.13999 -0.175,-0.34999 -0.175,-0.63 l 0,-18.795 -2.065,0 c -0.23333,2e-5 -0.43167,-0.07 -0.595,-0.21 -0.14,-0.16331 -0.21,-0.36164 -0.21,-0.595 0,-0.23331 0.07,-0.43164 0.21,-0.595 0.16333,-0.16331 0.36167,-0.24497 0.595,-0.245 l 6.02,0 c 0.23333,3e-5 0.41999,0.0817 0.56,0.245 0.16333,0.16336 0.24499,0.36169 0.245,0.595 -1e-5,0.23336 -0.0817,0.43169 -0.245,0.595 -0.14001,0.14002 -0.32667,0.21002 -0.56,0.21 l -2.065,0 0,17.99 11.235,0 0,-2.065 c -1e-5,-0.23332 0.0933,-0.41999 0.28,-0.56 0.18665,-0.16332 0.40832,-0.24499 0.665,-0.245 0.25665,1e-5 0.47832,0.0817 0.665,0.245 0.18665,0.14001 0.27998,0.32668 0.28,0.56"
           style="font-size:35px;font-weight:bold;text-align:start;line-height:125%;text-anchor:start;fill:#515151;marker:none;font-family:Flamenco;-inkscape-font-specification:Flamenco Bold"
           id="path3012" />
        <path
           d="m 207.26231,474.18495 c -1.54001,-0.41999 -2.85834,-0.62999 -3.955,-0.63 -1.07334,10e-6 -1.96001,0.21001 -2.66,0.63 -0.67667,0.42001 -1.01501,1.01501 -1.015,1.785 -1e-5,0.74667 0.22166,1.33001 0.665,1.75 0.44333,0.42001 1.04999,0.63001 1.82,0.63 2.14666,1e-5 3.86166,-1.16666 5.145,-3.5 l 0,-0.665 m 2.8,3.78 1.365,0 c 0.23332,1e-5 0.41998,0.0817 0.56,0.245 0.16332,0.16334 0.24498,0.36167 0.245,0.595 -2e-5,0.23334 -0.0817,0.43167 -0.245,0.595 -0.14002,0.14 -0.32668,0.21 -0.56,0.21 l -1.54,0 c -0.84001,0 -1.49335,-0.18666 -1.96,-0.56 -0.44335,-0.37333 -0.66501,-0.89833 -0.665,-1.575 -1e-5,-0.11666 0.0116,-0.24499 0.035,-0.385 -1.23668,1.91334 -3.03334,2.87 -5.39,2.87 -1.30667,0 -2.33334,-0.35 -3.08,-1.05 -0.72334,-0.69999 -1.085,-1.66833 -1.085,-2.905 0,-1.25999 0.49,-2.23999 1.47,-2.94 1.00333,-0.72332 2.23999,-1.08499 3.71,-1.085 1.49332,1e-5 2.93999,0.24501 4.34,0.735 l 0,-2.415 c -1e-5,-1.11998 -0.40835,-1.84332 -1.225,-2.17 -0.63001,-0.23332 -1.50501,-0.34998 -2.625,-0.35 -1.09667,2e-5 -2.11167,0.18668 -3.045,0.56 l 0,2.205 c -1e-5,0.23335 -0.0933,0.43168 -0.28,0.595 -0.18667,0.14001 -0.40834,0.21001 -0.665,0.21 -0.25667,1e-5 -0.47834,-0.07 -0.665,-0.21 -0.18667,-0.16332 -0.28,-0.36165 -0.28,-0.595 l 0,-2.66 c 0,-0.30332 0.15166,-0.53665 0.455,-0.7 1.14333,-0.67665 2.65999,-1.01498 4.55,-1.015 1.88999,2e-5 3.30165,0.31502 4.235,0.945 0.93332,0.60668 1.39999,1.66835 1.4,3.185 l 0,7 c -1e-5,0.44334 0.31499,0.66501 0.945,0.665"
           style="font-size:35px;font-weight:bold;text-align:start;line-height:125%;text-anchor:start;fill:#515151;marker:none;font-family:Flamenco;-inkscape-font-specification:Flamenco Bold"
           id="path3014" />
        <path
           d="m 216.22996,476.24995 c 1.54,1.40001 3.03333,2.10001 4.48,2.1 1.46999,1e-5 2.60166,-0.48999 3.395,-1.47 0.79333,-0.97999 1.18999,-2.27499 1.19,-3.885 -1e-5,-1.60999 -0.39667,-2.88165 -1.19,-3.815 -0.77001,-0.93332 -1.83167,-1.39998 -3.185,-1.4 -1.91334,2e-5 -3.47667,1.08502 -4.69,3.255 l 0,5.215 m -1.89,-21.245 -2.31,0 c -0.23333,3e-5 -0.42,-0.07 -0.56,-0.21 -0.16333,-0.1633 -0.24499,-0.36164 -0.245,-0.595 1e-5,-0.2333 0.0817,-0.43164 0.245,-0.595 0.14,-0.1633 0.32667,-0.24497 0.56,-0.245 l 3.255,0 c 0.23333,3e-5 0.44333,0.0817 0.63,0.245 0.21,0.16336 0.315,0.3617 0.315,0.595 l 0,14.63 c 1.19,-1.77332 2.77666,-2.65998 4.76,-2.66 1.98333,2e-5 3.49999,0.63002 4.55,1.89 1.07332,1.26002 1.60999,2.91668 1.61,4.97 -1e-5,2.05334 -0.54834,3.72167 -1.645,5.005 -1.09667,1.28334 -2.55501,1.925 -4.375,1.925 -1.82,0 -3.45333,-0.66499 -4.9,-1.995 l 0,1.19 c 0,0.23334 -0.0933,0.42 -0.28,0.56 -0.18667,0.16334 -0.40833,0.245 -0.665,0.245 -0.25667,0 -0.47833,-0.0817 -0.665,-0.245 -0.18666,-0.14 -0.28,-0.32666 -0.28,-0.56 l 0,-24.15"
           style="font-size:35px;font-weight:bold;text-align:start;line-height:125%;text-anchor:start;fill:#515151;marker:none;font-family:Flamenco;-inkscape-font-specification:Flamenco Bold"
           id="path3016" />
        <path
           d="m 236.82965,478.34995 c 1.42333,1e-5 2.57832,-0.48999 3.465,-1.47 0.90999,-0.97999 1.36499,-2.23999 1.365,-3.78 -1e-5,-1.56332 -0.45501,-2.83499 -1.365,-3.815 -0.88668,-1.00332 -2.04167,-1.50498 -3.465,-1.505 -1.42334,2e-5 -2.59,0.50168 -3.5,1.505 -0.88667,0.98001 -1.33,2.25168 -1.33,3.815 0,1.54001 0.44333,2.80001 1.33,3.78 0.91,0.98001 2.07666,1.47001 3.5,1.47 m -4.865,-0.315 c -1.23667,-1.30666 -1.855,-2.96332 -1.855,-4.97 0,-2.00665 0.63,-3.65165 1.89,-4.935 1.26,-1.30665 2.87,-1.95998 4.83,-1.96 1.95999,2e-5 3.55832,0.65335 4.795,1.96 1.25999,1.28335 1.88999,2.94001 1.89,4.97 -10e-6,2.00668 -0.63001,3.65167 -1.89,4.935 -1.23668,1.28334 -2.84667,1.925 -4.83,1.925 -1.96,0 -3.57,-0.64166 -4.83,-1.925"
           style="font-size:35px;font-weight:bold;text-align:start;line-height:125%;text-anchor:start;fill:#515151;marker:none;font-family:Flamenco;-inkscape-font-specification:Flamenco Bold"
           id="path3018" />
        <path
           d="m 245.95918,466.51995 1.785,0 c 1.47,2e-5 2.22833,0.79335 2.275,2.38 1.26,-1.81998 2.75333,-2.72998 4.48,-2.73 0.97999,2e-5 1.80833,0.18668 2.485,0.56 0.32666,0.18668 0.48999,0.43168 0.49,0.735 l 0,2.94 c -10e-6,0.23335 -0.0933,0.43168 -0.28,0.595 -0.18668,0.14001 -0.40834,0.21001 -0.665,0.21 -0.25667,1e-5 -0.47834,-0.07 -0.665,-0.21 -0.18667,-0.16332 -0.28001,-0.36165 -0.28,-0.595 l 0,-2.45 c -0.30334,-0.11665 -0.75834,-0.17498 -1.365,-0.175 -0.60667,2e-5 -1.295,0.29168 -2.065,0.875 -0.77,0.56002 -1.435,1.40001 -1.995,2.52 l 0,7.98 c 0,0.23334 -0.0933,0.42 -0.28,0.56 -0.18667,0.16334 -0.40833,0.245 -0.665,0.245 -0.25667,0 -0.47833,-0.0817 -0.665,-0.245 -0.18667,-0.14 -0.28,-0.32666 -0.28,-0.56 l 0,-10.325 c 0,-0.44332 -0.23333,-0.66498 -0.7,-0.665 l -1.61,0 c -0.23333,2e-5 -0.43166,-0.07 -0.595,-0.21 -0.14,-0.16332 -0.21,-0.36165 -0.21,-0.595 0,-0.23332 0.07,-0.43165 0.21,-0.595 0.16334,-0.16332 0.36167,-0.24498 0.595,-0.245"
           style="font-size:35px;font-weight:bold;text-align:start;line-height:125%;text-anchor:start;fill:#515151;marker:none;font-family:Flamenco;-inkscape-font-specification:Flamenco Bold"
           id="path3020" />
        <path
           d="m 269.12754,474.18495 c -1.54001,-0.41999 -2.85834,-0.62999 -3.955,-0.63 -1.07334,10e-6 -1.96,0.21001 -2.66,0.63 -0.67667,0.42001 -1.015,1.01501 -1.015,1.785 0,0.74667 0.22167,1.33001 0.665,1.75 0.44333,0.42001 1.05,0.63001 1.82,0.63 2.14666,1e-5 3.86166,-1.16666 5.145,-3.5 l 0,-0.665 m 2.8,3.78 1.365,0 c 0.23332,1e-5 0.41999,0.0817 0.56,0.245 0.16332,0.16334 0.24499,0.36167 0.245,0.595 -10e-6,0.23334 -0.0817,0.43167 -0.245,0.595 -0.14001,0.14 -0.32668,0.21 -0.56,0.21 l -1.54,0 c -0.84001,0 -1.49334,-0.18666 -1.96,-0.56 -0.44334,-0.37333 -0.66501,-0.89833 -0.665,-1.575 -1e-5,-0.11666 0.0117,-0.24499 0.035,-0.385 -1.23667,1.91334 -3.03334,2.87 -5.39,2.87 -1.30667,0 -2.33333,-0.35 -3.08,-1.05 -0.72333,-0.69999 -1.085,-1.66833 -1.085,-2.905 0,-1.25999 0.49,-2.23999 1.47,-2.94 1.00333,-0.72332 2.24,-1.08499 3.71,-1.085 1.49333,1e-5 2.93999,0.24501 4.34,0.735 l 0,-2.415 c -1e-5,-1.11998 -0.40834,-1.84332 -1.225,-2.17 -0.63001,-0.23332 -1.50501,-0.34998 -2.625,-0.35 -1.09667,2e-5 -2.11167,0.18668 -3.045,0.56 l 0,2.205 c 0,0.23335 -0.0933,0.43168 -0.28,0.595 -0.18667,0.14001 -0.40833,0.21001 -0.665,0.21 -0.25667,1e-5 -0.47833,-0.07 -0.665,-0.21 -0.18667,-0.16332 -0.28,-0.36165 -0.28,-0.595 l 0,-2.66 c 0,-0.30332 0.15167,-0.53665 0.455,-0.7 1.14333,-0.67665 2.66,-1.01498 4.55,-1.015 1.88999,2e-5 3.30166,0.31502 4.235,0.945 0.93332,0.60668 1.39999,1.66835 1.4,3.185 l 0,7 c -10e-6,0.44334 0.31499,0.66501 0.945,0.665"
           style="font-size:35px;font-weight:bold;text-align:start;line-height:125%;text-anchor:start;fill:#515151;marker:none;font-family:Flamenco;-inkscape-font-specification:Flamenco Bold"
           id="path3022" />
        <path
           d="m 285.4452,477.36995 c 0.18665,-0.11666 0.39665,-0.15166 0.63,-0.105 0.25665,0.0467 0.43165,0.15167 0.525,0.315 0.0933,0.14001 0.13999,0.26834 0.14,0.385 -1e-5,0.35001 -0.12835,0.60667 -0.385,0.77 -1.40001,0.81667 -2.90501,1.225 -4.515,1.225 -1.61001,0 -2.76501,-0.32666 -3.465,-0.98 -0.7,-0.67666 -1.05,-1.78499 -1.05,-3.325 l 0,-7.49 -1.96,0 c -0.23334,2e-5 -0.43167,-0.07 -0.595,-0.21 -0.14,-0.16332 -0.21,-0.36165 -0.21,-0.595 0,-0.23332 0.07,-0.43165 0.21,-0.595 0.16333,-0.16332 0.36166,-0.24498 0.595,-0.245 l 1.96,0 0,-5.005 c 0,-0.23331 0.0933,-0.41998 0.28,-0.56 0.18666,-0.16331 0.40833,-0.24498 0.665,-0.245 0.25666,2e-5 0.47833,0.0817 0.665,0.245 0.18666,0.14002 0.27999,0.32669 0.28,0.56 l 0,5.005 5.88,0 c 0.23332,2e-5 0.41999,0.0817 0.56,0.245 0.16332,0.16335 0.24499,0.36168 0.245,0.595 -10e-6,0.23335 -0.0817,0.43168 -0.245,0.595 -0.14001,0.14002 -0.32668,0.21002 -0.56,0.21 l -5.88,0 0,7.49 c -10e-6,0.98001 0.19833,1.68001 0.595,2.1 0.41999,0.39667 1.17833,0.59501 2.275,0.595 1.11999,1e-5 2.23999,-0.32666 3.36,-0.98"
           style="font-size:35px;font-weight:bold;text-align:start;line-height:125%;text-anchor:start;fill:#515151;marker:none;font-family:Flamenco;-inkscape-font-specification:Flamenco Bold"
           id="path3024" />
        <path
           d="m 295.27692,478.34995 c 1.42332,1e-5 2.57832,-0.48999 3.465,-1.47 0.90999,-0.97999 1.36498,-2.23999 1.365,-3.78 -2e-5,-1.56332 -0.45501,-2.83499 -1.365,-3.815 -0.88668,-1.00332 -2.04168,-1.50498 -3.465,-1.505 -1.42334,2e-5 -2.59001,0.50168 -3.5,1.505 -0.88667,0.98001 -1.33001,2.25168 -1.33,3.815 -10e-6,1.54001 0.44333,2.80001 1.33,3.78 0.90999,0.98001 2.07666,1.47001 3.5,1.47 m -4.865,-0.315 c -1.23667,-1.30666 -1.855,-2.96332 -1.855,-4.97 0,-2.00665 0.63,-3.65165 1.89,-4.935 1.25999,-1.30665 2.86999,-1.95998 4.83,-1.96 1.95999,2e-5 3.55832,0.65335 4.795,1.96 1.25998,1.28335 1.88998,2.94001 1.89,4.97 -2e-5,2.00668 -0.63002,3.65167 -1.89,4.935 -1.23668,1.28334 -2.84668,1.925 -4.83,1.925 -1.96001,0 -3.57001,-0.64166 -4.83,-1.925"
           style="font-size:35px;font-weight:bold;text-align:start;line-height:125%;text-anchor:start;fill:#515151;marker:none;font-family:Flamenco;-inkscape-font-specification:Flamenco Bold"
           id="path3026" />
        <path
           d="m 308.60645,479.15495 c -10e-6,0.23334 -0.0933,0.42 -0.28,0.56 -0.18667,0.16334 -0.40834,0.245 -0.665,0.245 -0.25667,0 -0.47834,-0.0817 -0.665,-0.245 -0.18667,-0.14 -0.28,-0.32666 -0.28,-0.56 l 0,-10.99 -2.31,0 c -0.23334,2e-5 -0.43167,-0.07 -0.595,-0.21 -0.14,-0.16332 -0.21,-0.36165 -0.21,-0.595 0,-0.23332 0.07,-0.43165 0.21,-0.595 0.16333,-0.16332 0.36166,-0.24498 0.595,-0.245 l 3.395,0 c 0.53666,2e-5 0.80499,0.26835 0.805,0.805 l 0,11.83 m -1.96,-17.885 c -0.21,-0.23331 -0.315,-0.51331 -0.315,-0.84 0,-0.32664 0.105,-0.60664 0.315,-0.84 0.21,-0.23331 0.50166,-0.34997 0.875,-0.35 0.37333,3e-5 0.66499,0.11669 0.875,0.35 0.23333,0.23336 0.34999,0.51336 0.35,0.84 -10e-6,0.32669 -0.11667,0.60669 -0.35,0.84 -0.21001,0.23336 -0.50167,0.35002 -0.875,0.35 -0.37334,2e-5 -0.665,-0.11664 -0.875,-0.35"
           style="font-size:35px;font-weight:bold;text-align:start;line-height:125%;text-anchor:start;fill:#515151;marker:none;font-family:Flamenco;-inkscape-font-specification:Flamenco Bold"
           id="path3028" />
        <path
           d="m 311.99434,466.51995 1.785,0 c 1.47,2e-5 2.22833,0.79335 2.275,2.38 1.25999,-1.81998 2.75333,-2.72998 4.48,-2.73 0.97999,2e-5 1.80832,0.18668 2.485,0.56 0.32665,0.18668 0.48999,0.43168 0.49,0.735 l 0,2.94 c -1e-5,0.23335 -0.0933,0.43168 -0.28,0.595 -0.18668,0.14001 -0.40835,0.21001 -0.665,0.21 -0.25668,1e-5 -0.47834,-0.07 -0.665,-0.21 -0.18668,-0.16332 -0.28001,-0.36165 -0.28,-0.595 l 0,-2.45 c -0.30334,-0.11665 -0.75834,-0.17498 -1.365,-0.175 -0.60668,2e-5 -1.29501,0.29168 -2.065,0.875 -0.77001,0.56002 -1.43501,1.40001 -1.995,2.52 l 0,7.98 c -1e-5,0.23334 -0.0933,0.42 -0.28,0.56 -0.18667,0.16334 -0.40834,0.245 -0.665,0.245 -0.25667,0 -0.47834,-0.0817 -0.665,-0.245 -0.18667,-0.14 -0.28,-0.32666 -0.28,-0.56 l 0,-10.325 c 0,-0.44332 -0.23334,-0.66498 -0.7,-0.665 l -1.61,0 c -0.23333,2e-5 -0.43167,-0.07 -0.595,-0.21 -0.14,-0.16332 -0.21,-0.36165 -0.21,-0.595 0,-0.23332 0.07,-0.43165 0.21,-0.595 0.16333,-0.16332 0.36167,-0.24498 0.595,-0.245"
           style="font-size:35px;font-weight:bold;text-align:start;line-height:125%;text-anchor:start;fill:#515151;marker:none;font-family:Flamenco;-inkscape-font-specification:Flamenco Bold"
           id="path3030" />
        <path
           d="m 336.2827,471.90995 c -0.07,-1.25999 -0.44335,-2.26332 -1.12,-3.01 -0.65334,-0.74665 -1.61001,-1.11998 -2.87,-1.12 -1.23667,2e-5 -2.27501,0.38502 -3.115,1.155 -0.84001,0.74668 -1.365,1.73835 -1.575,2.975 l 8.68,0 m 0.07,4.34 c 0.16332,-0.27999 0.34999,-0.41999 0.56,-0.42 0.20999,1e-5 0.41999,0.0583 0.63,0.175 0.20999,0.0933 0.34999,0.25667 0.42,0.49 0.0933,0.21001 0.0817,0.40834 -0.035,0.595 -1.19001,1.91334 -3.08001,2.87 -5.67,2.87 -2.05334,0 -3.67501,-0.65333 -4.865,-1.96 -1.16667,-1.32999 -1.75,-2.99832 -1.75,-5.005 0,-2.00665 0.60666,-3.63998 1.82,-4.9 1.21333,-1.28332 2.81166,-1.92498 4.795,-1.925 1.98332,2e-5 3.45332,0.59502 4.41,1.785 0.97999,1.19002 1.46999,2.77668 1.47,4.76 -10e-6,0.53668 -0.30335,0.80501 -0.91,0.805 l -9.695,0.035 c 0.0933,1.44668 0.56,2.61334 1.4,3.5 0.86333,0.86334 1.97166,1.29501 3.325,1.295 1.81999,1e-5 3.18499,-0.69999 4.095,-2.1"
           style="font-size:35px;font-weight:bold;text-align:start;line-height:125%;text-anchor:start;fill:#515151;marker:none;font-family:Flamenco;-inkscape-font-specification:Flamenco Bold"
           id="path3032" />
        <path
           d="m 354.97817,467.77995 c -1.33001,2e-5 -2.39167,0.47835 -3.185,1.435 -0.79334,0.95668 -1.19001,2.25168 -1.19,3.885 -10e-6,1.63334 0.38499,2.91668 1.155,3.85 0.79333,0.93334 1.86666,1.40001 3.22,1.4 1.95999,1e-5 3.52332,-1.10833 4.69,-3.325 l 0,-5.145 c -0.60668,-0.58332 -1.34168,-1.07332 -2.205,-1.47 -0.84001,-0.41998 -1.66834,-0.62998 -2.485,-0.63 m 4.69,-12.775 -2.31,0 c -0.23335,3e-5 -0.43168,-0.07 -0.595,-0.21 -0.14001,-0.1633 -0.21001,-0.36164 -0.21,-0.595 -1e-5,-0.2333 0.07,-0.43164 0.21,-0.595 0.16332,-0.1633 0.36165,-0.24497 0.595,-0.245 l 3.255,0 c 0.25665,3e-5 0.47832,0.0817 0.665,0.245 0.18665,0.16336 0.27998,0.3617 0.28,0.595 l 0,23.1 c -2e-5,0.44334 0.23332,0.66501 0.7,0.665 l 1.61,0 c 0.23331,1e-5 0.41998,0.0817 0.56,0.245 0.16331,0.14001 0.24498,0.32667 0.245,0.56 -2e-5,0.23334 -0.0817,0.43167 -0.245,0.595 -0.14002,0.16334 -0.32669,0.245 -0.56,0.245 l -1.855,0 c -1.51668,0 -2.25168,-0.82833 -2.205,-2.485 -0.51335,0.79334 -1.19001,1.47001 -2.03,2.03 -0.81668,0.53667 -1.75001,0.805 -2.8,0.805 -2.07667,0 -3.64001,-0.66499 -4.69,-1.995 -1.02667,-1.32999 -1.54,-2.97499 -1.54,-4.935 0,-1.95999 0.53666,-3.59332 1.61,-4.9 1.09666,-1.30665 2.58999,-1.95998 4.48,-1.96 1.88999,2e-5 3.49999,0.61835 4.83,1.855 l 0,-13.02"
           style="font-size:35px;font-weight:bold;text-align:start;line-height:125%;text-anchor:start;fill:#515151;marker:none;font-family:Flamenco;-inkscape-font-specification:Flamenco Bold"
           id="path3034" />
        <path
           d="m 377.09325,471.90995 c -0.07,-1.25999 -0.44335,-2.26332 -1.12,-3.01 -0.65335,-0.74665 -1.61001,-1.11998 -2.87,-1.12 -1.23668,2e-5 -2.27501,0.38502 -3.115,1.155 -0.84001,0.74668 -1.36501,1.73835 -1.575,2.975 l 8.68,0 m 0.07,4.34 c 0.16332,-0.27999 0.34998,-0.41999 0.56,-0.42 0.20998,1e-5 0.41998,0.0583 0.63,0.175 0.20998,0.0933 0.34998,0.25667 0.42,0.49 0.0933,0.21001 0.0816,0.40834 -0.035,0.595 -1.19002,1.91334 -3.08001,2.87 -5.67,2.87 -2.05334,0 -3.67501,-0.65333 -4.865,-1.96 -1.16667,-1.32999 -1.75001,-2.99832 -1.75,-5.005 -1e-5,-2.00665 0.60666,-3.63998 1.82,-4.9 1.21332,-1.28332 2.81166,-1.92498 4.795,-1.925 1.98332,2e-5 3.45332,0.59502 4.41,1.785 0.97998,1.19002 1.46998,2.77668 1.47,4.76 -2e-5,0.53668 -0.30335,0.80501 -0.91,0.805 l -9.695,0.035 c 0.0933,1.44668 0.55999,2.61334 1.4,3.5 0.86332,0.86334 1.97166,1.29501 3.325,1.295 1.81999,1e-5 3.18498,-0.69999 4.095,-2.1"
           style="font-size:35px;font-weight:bold;text-align:start;line-height:125%;text-anchor:start;fill:#515151;marker:none;font-family:Flamenco;-inkscape-font-specification:Flamenco Bold"
           id="path3036" />
        <path
           d="m 393.54871,459.97495 0,9.87 7,0 c 3.84999,1e-5 5.77499,-1.65665 5.775,-4.97 -1e-5,-1.74998 -0.49001,-2.99831 -1.47,-3.745 -0.95668,-0.76998 -2.39168,-1.15498 -4.305,-1.155 l -7,0 m 0,11.48 0,7.7 c 0,0.23334 -0.0933,0.42 -0.28,0.56 -0.18667,0.16334 -0.40833,0.245 -0.665,0.245 -0.25667,0 -0.47833,-0.0817 -0.665,-0.245 -0.18667,-0.14 -0.28,-0.32666 -0.28,-0.56 l 0,-19.18 -2.1,0 c -0.23333,2e-5 -0.43166,-0.07 -0.595,-0.21 -0.14,-0.16331 -0.21,-0.36164 -0.21,-0.595 0,-0.23331 0.07,-0.43164 0.21,-0.595 0.16334,-0.16331 0.36167,-0.24497 0.595,-0.245 l 10.99,0 c 5.10999,3e-5 7.66498,2.18169 7.665,6.545 -2e-5,3.15002 -1.38835,5.18001 -4.165,6.09 l 4.515,7.805 c 0.0466,0.0933 0.07,0.19834 0.07,0.315 -2e-5,0.32667 -0.14002,0.56 -0.42,0.7 -0.25668,0.14 -0.49002,0.21 -0.7,0.21 -0.21001,0 -0.39668,-0.12833 -0.56,-0.385 l -4.795,-8.225 c -0.60668,0.0467 -1.14334,0.07 -1.61,0.07 l -7,0"
           style="font-size:35px;font-weight:bold;text-align:start;line-height:125%;text-anchor:start;fill:#515151;marker:none;font-family:Flamenco;-inkscape-font-specification:Flamenco Bold"
           id="path3038" />
        <path
           d="m 417.77692,478.34995 c 1.42332,1e-5 2.57832,-0.48999 3.465,-1.47 0.90999,-0.97999 1.36498,-2.23999 1.365,-3.78 -2e-5,-1.56332 -0.45501,-2.83499 -1.365,-3.815 -0.88668,-1.00332 -2.04168,-1.50498 -3.465,-1.505 -1.42334,2e-5 -2.59001,0.50168 -3.5,1.505 -0.88667,0.98001 -1.33001,2.25168 -1.33,3.815 -10e-6,1.54001 0.44333,2.80001 1.33,3.78 0.90999,0.98001 2.07666,1.47001 3.5,1.47 m -4.865,-0.315 c -1.23667,-1.30666 -1.855,-2.96332 -1.855,-4.97 0,-2.00665 0.63,-3.65165 1.89,-4.935 1.25999,-1.30665 2.86999,-1.95998 4.83,-1.96 1.95999,2e-5 3.55832,0.65335 4.795,1.96 1.25998,1.28335 1.88998,2.94001 1.89,4.97 -2e-5,2.00668 -0.63002,3.65167 -1.89,4.935 -1.23668,1.28334 -2.84668,1.925 -4.83,1.925 -1.96001,0 -3.57001,-0.64166 -4.83,-1.925"
           style="font-size:35px;font-weight:bold;text-align:start;line-height:125%;text-anchor:start;fill:#515151;marker:none;font-family:Flamenco;-inkscape-font-specification:Flamenco Bold"
           id="path3040" />
        <path
           d="m 430.12645,476.24995 c 1.53999,1.40001 3.03333,2.10001 4.48,2.1 1.46999,1e-5 2.60165,-0.48999 3.395,-1.47 0.79332,-0.97999 1.18999,-2.27499 1.19,-3.885 -10e-6,-1.60999 -0.39668,-2.88165 -1.19,-3.815 -0.77001,-0.93332 -1.83168,-1.39998 -3.185,-1.4 -1.91334,2e-5 -3.47667,1.08502 -4.69,3.255 l 0,5.215 m -1.89,-21.245 -2.31,0 c -0.23333,3e-5 -0.42,-0.07 -0.56,-0.21 -0.16333,-0.1633 -0.245,-0.36164 -0.245,-0.595 0,-0.2333 0.0817,-0.43164 0.245,-0.595 0.14,-0.1633 0.32667,-0.24497 0.56,-0.245 l 3.255,0 c 0.23333,3e-5 0.44333,0.0817 0.63,0.245 0.20999,0.16336 0.31499,0.3617 0.315,0.595 l 0,14.63 c 1.18999,-1.77332 2.77666,-2.65998 4.76,-2.66 1.98332,2e-5 3.49999,0.63002 4.55,1.89 1.07332,1.26002 1.60998,2.91668 1.61,4.97 -2e-5,2.05334 -0.54835,3.72167 -1.645,5.005 -1.09668,1.28334 -2.55501,1.925 -4.375,1.925 -1.82001,0 -3.45334,-0.66499 -4.9,-1.995 l 0,1.19 c -10e-6,0.23334 -0.0933,0.42 -0.28,0.56 -0.18667,0.16334 -0.40834,0.245 -0.665,0.245 -0.25667,0 -0.47834,-0.0817 -0.665,-0.245 -0.18667,-0.14 -0.28,-0.32666 -0.28,-0.56 l 0,-24.15"
           style="font-size:35px;font-weight:bold;text-align:start;line-height:125%;text-anchor:start;fill:#515151;marker:none;font-family:Flamenco;-inkscape-font-specification:Flamenco Bold"
           id="path3042" />
        <path
           d="m 450.72614,478.34995 c 1.42332,1e-5 2.57832,-0.48999 3.465,-1.47 0.90998,-0.97999 1.36498,-2.23999 1.365,-3.78 -2e-5,-1.56332 -0.45502,-2.83499 -1.365,-3.815 -0.88668,-1.00332 -2.04168,-1.50498 -3.465,-1.505 -1.42334,2e-5 -2.59001,0.50168 -3.5,1.505 -0.88667,0.98001 -1.33001,2.25168 -1.33,3.815 -10e-6,1.54001 0.44333,2.80001 1.33,3.78 0.90999,0.98001 2.07666,1.47001 3.5,1.47 m -4.865,-0.315 c -1.23667,-1.30666 -1.855,-2.96332 -1.855,-4.97 0,-2.00665 0.62999,-3.65165 1.89,-4.935 1.25999,-1.30665 2.86999,-1.95998 4.83,-1.96 1.95999,2e-5 3.55832,0.65335 4.795,1.96 1.25998,1.28335 1.88998,2.94001 1.89,4.97 -2e-5,2.00668 -0.63002,3.65167 -1.89,4.935 -1.23668,1.28334 -2.84668,1.925 -4.83,1.925 -1.96001,0 -3.57001,-0.64166 -4.83,-1.925"
           style="font-size:35px;font-weight:bold;text-align:start;line-height:125%;text-anchor:start;fill:#515151;marker:none;font-family:Flamenco;-inkscape-font-specification:Flamenco Bold"
           id="path3044" />
        <path
           d="m 470.15223,477.36995 c 0.18666,-0.11666 0.39665,-0.15166 0.63,-0.105 0.25665,0.0467 0.43165,0.15167 0.525,0.315 0.0933,0.14001 0.13999,0.26834 0.14,0.385 -10e-6,0.35001 -0.12835,0.60667 -0.385,0.77 -1.40001,0.81667 -2.90501,1.225 -4.515,1.225 -1.61001,0 -2.765,-0.32666 -3.465,-0.98 -0.7,-0.67666 -1.05,-1.78499 -1.05,-3.325 l 0,-7.49 -1.96,0 c -0.23333,2e-5 -0.43167,-0.07 -0.595,-0.21 -0.14,-0.16332 -0.21,-0.36165 -0.21,-0.595 0,-0.23332 0.07,-0.43165 0.21,-0.595 0.16333,-0.16332 0.36167,-0.24498 0.595,-0.245 l 1.96,0 0,-5.005 c 0,-0.23331 0.0933,-0.41998 0.28,-0.56 0.18666,-0.16331 0.40833,-0.24498 0.665,-0.245 0.25666,2e-5 0.47833,0.0817 0.665,0.245 0.18666,0.14002 0.27999,0.32669 0.28,0.56 l 0,5.005 5.88,0 c 0.23332,2e-5 0.41999,0.0817 0.56,0.245 0.16332,0.16335 0.24499,0.36168 0.245,0.595 -1e-5,0.23335 -0.0817,0.43168 -0.245,0.595 -0.14001,0.14002 -0.32668,0.21002 -0.56,0.21 l -5.88,0 0,7.49 c -1e-5,0.98001 0.19833,1.68001 0.595,2.1 0.41999,0.39667 1.17833,0.59501 2.275,0.595 1.11999,1e-5 2.23999,-0.32666 3.36,-0.98"
           style="font-size:35px;font-weight:bold;text-align:start;line-height:125%;text-anchor:start;fill:#515151;marker:none;font-family:Flamenco;-inkscape-font-specification:Flamenco Bold"
           id="path3046" />
        <path
           d="m 477.04395,479.15495 c -10e-6,0.23334 -0.0933,0.42 -0.28,0.56 -0.18667,0.16334 -0.40834,0.245 -0.665,0.245 -0.25667,0 -0.47834,-0.0817 -0.665,-0.245 -0.18667,-0.14 -0.28,-0.32666 -0.28,-0.56 l 0,-10.99 -2.31,0 c -0.23334,2e-5 -0.43167,-0.07 -0.595,-0.21 -0.14,-0.16332 -0.21,-0.36165 -0.21,-0.595 0,-0.23332 0.07,-0.43165 0.21,-0.595 0.16333,-0.16332 0.36166,-0.24498 0.595,-0.245 l 3.395,0 c 0.53666,2e-5 0.80499,0.26835 0.805,0.805 l 0,11.83 m -1.96,-17.885 c -0.21,-0.23331 -0.315,-0.51331 -0.315,-0.84 0,-0.32664 0.105,-0.60664 0.315,-0.84 0.21,-0.23331 0.50166,-0.34997 0.875,-0.35 0.37333,3e-5 0.66499,0.11669 0.875,0.35 0.23333,0.23336 0.34999,0.51336 0.35,0.84 -10e-6,0.32669 -0.11667,0.60669 -0.35,0.84 -0.21001,0.23336 -0.50167,0.35002 -0.875,0.35 -0.37334,2e-5 -0.665,-0.11664 -0.875,-0.35"
           style="font-size:35px;font-weight:bold;text-align:start;line-height:125%;text-anchor:start;fill:#515151;marker:none;font-family:Flamenco;-inkscape-font-specification:Flamenco Bold"
           id="path3048" />
        <path
           d="m 492.78684,487.62495 c -0.65335,0 -0.98001,-0.25667 -0.98,-0.77 l 0,-9.52 c -0.53668,0.77001 -1.22501,1.40001 -2.065,1.89 -0.81668,0.49 -1.69168,0.735 -2.625,0.735 -2.03001,0 -3.58167,-0.64166 -4.655,-1.925 -1.05,-1.28333 -1.575,-2.92832 -1.575,-4.935 0,-2.00665 0.54833,-3.66332 1.645,-4.97 1.09666,-1.30665 2.56666,-1.95998 4.41,-1.96 1.86666,2e-5 3.48832,0.56002 4.865,1.68 l 0,-0.91 c -1e-5,-0.51332 0.32665,-0.76998 0.98,-0.77 0.23332,2e-5 0.44332,0.07 0.63,0.21 0.18665,0.14002 0.27999,0.32668 0.28,0.56 l 0,19.915 c -1e-5,0.23333 -0.0933,0.42 -0.28,0.56 -0.18668,0.14 -0.39668,0.21 -0.63,0.21 m -0.98,-17.99 c -1.37668,-1.23665 -2.84668,-1.85498 -4.41,-1.855 -1.54001,2e-5 -2.70667,0.47835 -3.5,1.435 -0.77,0.93335 -1.155,2.21668 -1.155,3.85 0,1.63334 0.385,2.92834 1.155,3.885 0.76999,0.93334 1.83166,1.40001 3.185,1.4 1.95999,1e-5 3.53499,-1.10833 4.725,-3.325 l 0,-5.39"
           style="font-size:35px;font-weight:bold;text-align:start;line-height:125%;text-anchor:start;fill:#515151;marker:none;font-family:Flamenco;-inkscape-font-specification:Flamenco Bold"
           id="path3050" />
        <path
           d="m 511.18317,477.96495 1.645,0 c 0.23331,1e-5 0.41998,0.0817 0.56,0.245 0.16331,0.14001 0.24498,0.32667 0.245,0.56 -2e-5,0.23334 -0.0817,0.43167 -0.245,0.595 -0.14002,0.16334 -0.32669,0.245 -0.56,0.245 l -1.89,0 c -1.44668,0 -2.17002,-0.79333 -2.17,-2.38 -1.40001,1.82001 -3.16168,2.73 -5.285,2.73 -1.26001,0 -2.29834,-0.315 -3.115,-0.945 -0.79334,-0.65333 -1.19001,-1.59833 -1.19,-2.835 l 0,-7.35 c -1e-5,-0.44332 -0.31501,-0.66498 -0.945,-0.665 l -1.365,0 c -0.23334,2e-5 -0.43167,-0.0816 -0.595,-0.245 -0.14,-0.16332 -0.21,-0.36165 -0.21,-0.595 0,-0.23332 0.07,-0.41998 0.21,-0.56 0.16333,-0.16332 0.36166,-0.24498 0.595,-0.245 l 1.365,0 c 1.88999,2e-5 2.83499,0.75835 2.835,2.275 l 0,7.385 c -1e-5,0.70001 0.20999,1.23667 0.63,1.61 0.44332,0.37334 1.04999,0.56001 1.82,0.56 2.14665,1e-5 3.84999,-1.11999 5.11,-3.36 l 0,-8.015 c -1e-5,-0.23332 0.0933,-0.41998 0.28,-0.56 0.18665,-0.16332 0.40832,-0.24498 0.665,-0.245 0.25665,2e-5 0.47832,0.0817 0.665,0.245 0.18665,0.14002 0.27998,0.32668 0.28,0.56 l 0,10.325 c -2e-5,0.44334 0.22165,0.66501 0.665,0.665"
           style="font-size:35px;font-weight:bold;text-align:start;line-height:125%;text-anchor:start;fill:#515151;marker:none;font-family:Flamenco;-inkscape-font-specification:Flamenco Bold"
           id="path3052" />
        <path
           d="m 525.97996,471.90995 c -0.07,-1.25999 -0.44334,-2.26332 -1.12,-3.01 -0.65334,-0.74665 -1.61,-1.11998 -2.87,-1.12 -1.23667,2e-5 -2.275,0.38502 -3.115,1.155 -0.84,0.74668 -1.365,1.73835 -1.575,2.975 l 8.68,0 m 0.07,4.34 c 0.16333,-0.27999 0.34999,-0.41999 0.56,-0.42 0.20999,1e-5 0.41999,0.0583 0.63,0.175 0.20999,0.0933 0.34999,0.25667 0.42,0.49 0.0933,0.21001 0.0817,0.40834 -0.035,0.595 -1.19001,1.91334 -3.08001,2.87 -5.67,2.87 -2.05333,0 -3.675,-0.65333 -4.865,-1.96 -1.16666,-1.32999 -1.75,-2.99832 -1.75,-5.005 0,-2.00665 0.60667,-3.63998 1.82,-4.9 1.21333,-1.28332 2.81167,-1.92498 4.795,-1.925 1.98333,2e-5 3.45333,0.59502 4.41,1.785 0.97999,1.19002 1.46999,2.77668 1.47,4.76 -10e-6,0.53668 -0.30334,0.80501 -0.91,0.805 l -9.695,0.035 c 0.0933,1.44668 0.56,2.61334 1.4,3.5 0.86333,0.86334 1.97166,1.29501 3.325,1.295 1.81999,1e-5 3.18499,-0.69999 4.095,-2.1"
           style="font-size:35px;font-weight:bold;text-align:start;line-height:125%;text-anchor:start;fill:#515151;marker:none;font-family:Flamenco;-inkscape-font-specification:Flamenco Bold"
           id="path3054" />
        <path
           d="m 544.67543,467.77995 c -1.33,2e-5 -2.39167,0.47835 -3.185,1.435 -0.79333,0.95668 -1.19,2.25168 -1.19,3.885 0,1.63334 0.385,2.91668 1.155,3.85 0.79333,0.93334 1.86666,1.40001 3.22,1.4 1.95999,1e-5 3.52333,-1.10833 4.69,-3.325 l 0,-5.145 c -0.60668,-0.58332 -1.34167,-1.07332 -2.205,-1.47 -0.84001,-0.41998 -1.66834,-0.62998 -2.485,-0.63 m 4.69,-12.775 -2.31,0 c -0.23334,3e-5 -0.43167,-0.07 -0.595,-0.21 -0.14001,-0.1633 -0.21001,-0.36164 -0.21,-0.595 -1e-5,-0.2333 0.07,-0.43164 0.21,-0.595 0.16333,-0.1633 0.36166,-0.24497 0.595,-0.245 l 3.255,0 c 0.25666,3e-5 0.47832,0.0817 0.665,0.245 0.18666,0.16336 0.27999,0.3617 0.28,0.595 l 0,23.1 c -1e-5,0.44334 0.23332,0.66501 0.7,0.665 l 1.61,0 c 0.23332,1e-5 0.41999,0.0817 0.56,0.245 0.16332,0.14001 0.24499,0.32667 0.245,0.56 -1e-5,0.23334 -0.0817,0.43167 -0.245,0.595 -0.14001,0.16334 -0.32668,0.245 -0.56,0.245 l -1.855,0 c -1.51668,0 -2.25168,-0.82833 -2.205,-2.485 -0.51334,0.79334 -1.19001,1.47001 -2.03,2.03 -0.81667,0.53667 -1.75001,0.805 -2.8,0.805 -2.07667,0 -3.64,-0.66499 -4.69,-1.995 -1.02667,-1.32999 -1.54,-2.97499 -1.54,-4.935 0,-1.95999 0.53667,-3.59332 1.61,-4.9 1.09667,-1.30665 2.59,-1.95998 4.48,-1.96 1.88999,2e-5 3.49999,0.61835 4.83,1.855 l 0,-13.02"
           style="font-size:35px;font-weight:bold;text-align:start;line-height:125%;text-anchor:start;fill:#515151;marker:none;font-family:Flamenco;-inkscape-font-specification:Flamenco Bold"
           id="path3056" />
        <path
           d="m 569.83551,477.96495 1.645,0 c 0.23332,1e-5 0.41998,0.0817 0.56,0.245 0.16332,0.14001 0.24498,0.32667 0.245,0.56 -2e-5,0.23334 -0.0817,0.43167 -0.245,0.595 -0.14002,0.16334 -0.32668,0.245 -0.56,0.245 l -1.89,0 c -1.44668,0 -2.17001,-0.79333 -2.17,-2.38 -1.40001,1.82001 -3.16167,2.73 -5.285,2.73 -1.26,0 -2.29834,-0.315 -3.115,-0.945 -0.79334,-0.65333 -1.19,-1.59833 -1.19,-2.835 l 0,-7.35 c 0,-0.44332 -0.315,-0.66498 -0.945,-0.665 l -1.365,0 c -0.23333,2e-5 -0.43167,-0.0816 -0.595,-0.245 -0.14,-0.16332 -0.21,-0.36165 -0.21,-0.595 0,-0.23332 0.07,-0.41998 0.21,-0.56 0.16333,-0.16332 0.36167,-0.24498 0.595,-0.245 l 1.365,0 c 1.89,2e-5 2.835,0.75835 2.835,2.275 l 0,7.385 c 0,0.70001 0.21,1.23667 0.63,1.61 0.44333,0.37334 1.04999,0.56001 1.82,0.56 2.14666,1e-5 3.84999,-1.11999 5.11,-3.36 l 0,-8.015 c -1e-5,-0.23332 0.0933,-0.41998 0.28,-0.56 0.18666,-0.16332 0.40832,-0.24498 0.665,-0.245 0.25665,2e-5 0.47832,0.0817 0.665,0.245 0.18665,0.14002 0.27999,0.32668 0.28,0.56 l 0,10.325 c -1e-5,0.44334 0.22165,0.66501 0.665,0.665"
           style="font-size:35px;font-weight:bold;text-align:start;line-height:125%;text-anchor:start;fill:#515151;marker:none;font-family:Flamenco;-inkscape-font-specification:Flamenco Bold"
           id="path3058" />
        <path
           d="m 585.70692,479.15495 c -10e-6,0.23334 -0.0933,0.42 -0.28,0.56 -0.18667,0.16334 -0.40834,0.245 -0.665,0.245 -0.25667,0 -0.47834,-0.0817 -0.665,-0.245 -0.18667,-0.14 -0.28001,-0.32666 -0.28,-0.56 l 0,-19.18 -1.925,0 c -0.25667,2e-5 -0.47834,-0.0816 -0.665,-0.245 -0.18667,-0.16331 -0.28,-0.36164 -0.28,-0.595 0,-0.23331 0.0817,-0.41997 0.245,-0.56 0.18666,-0.16331 0.42,-0.24497 0.7,-0.245 l 2.73,0 c 0.37333,3e-5 0.66499,0.11669 0.875,0.35 l 13.72,17.64 0,-16.345 -2.065,0 c -0.23335,2e-5 -0.43169,-0.07 -0.595,-0.21 -0.14002,-0.16331 -0.21002,-0.36164 -0.21,-0.595 -2e-5,-0.23331 0.07,-0.43164 0.21,-0.595 0.16331,-0.16331 0.36165,-0.24497 0.595,-0.245 l 6.02,0 c 0.23331,3e-5 0.41997,0.0817 0.56,0.245 0.16331,0.16336 0.24497,0.36169 0.245,0.595 -3e-5,0.23336 -0.0817,0.43169 -0.245,0.595 -0.14003,0.14002 -0.32669,0.21002 -0.56,0.21 l -2.065,0 0,19.075 c -2e-5,0.60667 -0.30336,0.91 -0.91,0.91 -0.32669,0 -0.60669,-0.16333 -0.84,-0.49 l -13.65,-17.57 0,17.255"
           style="font-size:35px;font-weight:bold;text-align:start;line-height:125%;text-anchor:start;fill:#515151;marker:none;font-family:Flamenco;-inkscape-font-specification:Flamenco Bold"
           id="path3060" />
        <path
           d="m 612.25934,478.34995 c 1.42332,1e-5 2.57832,-0.48999 3.465,-1.47 0.90999,-0.97999 1.36499,-2.23999 1.365,-3.78 -10e-6,-1.56332 -0.45501,-2.83499 -1.365,-3.815 -0.88668,-1.00332 -2.04168,-1.50498 -3.465,-1.505 -1.42334,2e-5 -2.59001,0.50168 -3.5,1.505 -0.88667,0.98001 -1.33,2.25168 -1.33,3.815 0,1.54001 0.44333,2.80001 1.33,3.78 0.90999,0.98001 2.07666,1.47001 3.5,1.47 m -4.865,-0.315 c -1.23667,-1.30666 -1.855,-2.96332 -1.855,-4.97 0,-2.00665 0.63,-3.65165 1.89,-4.935 1.26,-1.30665 2.86999,-1.95998 4.83,-1.96 1.95999,2e-5 3.55832,0.65335 4.795,1.96 1.25999,1.28335 1.88998,2.94001 1.89,4.97 -2e-5,2.00668 -0.63001,3.65167 -1.89,4.935 -1.23668,1.28334 -2.84668,1.925 -4.83,1.925 -1.96001,0 -3.57,-0.64166 -4.83,-1.925"
           style="font-size:35px;font-weight:bold;text-align:start;line-height:125%;text-anchor:start;fill:#515151;marker:none;font-family:Flamenco;-inkscape-font-specification:Flamenco Bold"
           id="path3062" />
        <path
           d="m 621.38887,466.51995 1.785,0 c 1.47,2e-5 2.22833,0.79335 2.275,2.38 1.25999,-1.81998 2.75333,-2.72998 4.48,-2.73 0.97999,2e-5 1.80832,0.18668 2.485,0.56 0.32666,0.18668 0.48999,0.43168 0.49,0.735 l 0,2.94 c -10e-6,0.23335 -0.0933,0.43168 -0.28,0.595 -0.18668,0.14001 -0.40834,0.21001 -0.665,0.21 -0.25668,1e-5 -0.47834,-0.07 -0.665,-0.21 -0.18668,-0.16332 -0.28001,-0.36165 -0.28,-0.595 l 0,-2.45 c -0.30334,-0.11665 -0.75834,-0.17498 -1.365,-0.175 -0.60667,2e-5 -1.29501,0.29168 -2.065,0.875 -0.77001,0.56002 -1.435,1.40001 -1.995,2.52 l 0,7.98 c 0,0.23334 -0.0933,0.42 -0.28,0.56 -0.18667,0.16334 -0.40834,0.245 -0.665,0.245 -0.25667,0 -0.47834,-0.0817 -0.665,-0.245 -0.18667,-0.14 -0.28,-0.32666 -0.28,-0.56 l 0,-10.325 c 0,-0.44332 -0.23334,-0.66498 -0.7,-0.665 l -1.61,0 c -0.23333,2e-5 -0.43167,-0.07 -0.595,-0.21 -0.14,-0.16332 -0.21,-0.36165 -0.21,-0.595 0,-0.23332 0.07,-0.43165 0.21,-0.595 0.16333,-0.16332 0.36167,-0.24498 0.595,-0.245"
           style="font-size:35px;font-weight:bold;text-align:start;line-height:125%;text-anchor:start;fill:#515151;marker:none;font-family:Flamenco;-inkscape-font-specification:Flamenco Bold"
           id="path3064" />
        <path
           d="m 641.26723,467.77995 c -1.33001,2e-5 -2.39167,0.47835 -3.185,1.435 -0.79334,0.95668 -1.19,2.25168 -1.19,3.885 0,1.63334 0.385,2.91668 1.155,3.85 0.79333,0.93334 1.86666,1.40001 3.22,1.4 1.95999,1e-5 3.52332,-1.10833 4.69,-3.325 l 0,-5.145 c -0.60668,-0.58332 -1.34168,-1.07332 -2.205,-1.47 -0.84001,-0.41998 -1.66834,-0.62998 -2.485,-0.63 m 4.69,-12.775 -2.31,0 c -0.23334,3e-5 -0.43168,-0.07 -0.595,-0.21 -0.14001,-0.1633 -0.21001,-0.36164 -0.21,-0.595 -10e-6,-0.2333 0.07,-0.43164 0.21,-0.595 0.16332,-0.1633 0.36166,-0.24497 0.595,-0.245 l 3.255,0 c 0.25665,3e-5 0.47832,0.0817 0.665,0.245 0.18665,0.16336 0.27999,0.3617 0.28,0.595 l 0,23.1 c -10e-6,0.44334 0.23332,0.66501 0.7,0.665 l 1.61,0 c 0.23332,1e-5 0.41998,0.0817 0.56,0.245 0.16332,0.14001 0.24498,0.32667 0.245,0.56 -2e-5,0.23334 -0.0817,0.43167 -0.245,0.595 -0.14002,0.16334 -0.32668,0.245 -0.56,0.245 l -1.855,0 c -1.51668,0 -2.25168,-0.82833 -2.205,-2.485 -0.51335,0.79334 -1.19001,1.47001 -2.03,2.03 -0.81668,0.53667 -1.75001,0.805 -2.8,0.805 -2.07667,0 -3.64,-0.66499 -4.69,-1.995 -1.02667,-1.32999 -1.54,-2.97499 -1.54,-4.935 0,-1.95999 0.53666,-3.59332 1.61,-4.9 1.09666,-1.30665 2.58999,-1.95998 4.48,-1.96 1.88999,2e-5 3.49999,0.61835 4.83,1.855 l 0,-13.02"
           style="font-size:35px;font-weight:bold;text-align:start;line-height:125%;text-anchor:start;fill:#515151;marker:none;font-family:Flamenco;-inkscape-font-specification:Flamenco Bold"
           id="path3066" />
        <path
           d="m 182.7284,522.90495 c 0,0.23334 -0.0933,0.42 -0.28,0.56 -0.18667,0.16334 -0.40834,0.245 -0.665,0.245 -0.25667,0 -0.47834,-0.0817 -0.665,-0.245 -0.18667,-0.14 -0.28,-0.32666 -0.28,-0.56 l 0,-19.18 -1.925,0 c -0.25667,2e-5 -0.47833,-0.0816 -0.665,-0.245 -0.18667,-0.16331 -0.28,-0.36164 -0.28,-0.595 0,-0.23331 0.0817,-0.41997 0.245,-0.56 0.18667,-0.16331 0.42,-0.24497 0.7,-0.245 l 2.73,0 c 0.37333,3e-5 0.665,0.11669 0.875,0.35 l 13.72,17.64 0,-16.345 -2.065,0 c -0.23335,2e-5 -0.43168,-0.07 -0.595,-0.21 -0.14001,-0.16331 -0.21001,-0.36164 -0.21,-0.595 -1e-5,-0.23331 0.07,-0.43164 0.21,-0.595 0.16332,-0.16331 0.36165,-0.24497 0.595,-0.245 l 6.02,0 c 0.23331,3e-5 0.41998,0.0817 0.56,0.245 0.16331,0.16336 0.24498,0.36169 0.245,0.595 -2e-5,0.23336 -0.0817,0.43169 -0.245,0.595 -0.14002,0.14002 -0.32669,0.21002 -0.56,0.21 l -2.065,0 0,19.075 c -2e-5,0.60667 -0.30335,0.91 -0.91,0.91 -0.32668,0 -0.60668,-0.16333 -0.84,-0.49 l -13.65,-17.57 0,17.255"
           style="font-size:35px;font-weight:bold;text-align:start;word-spacing:40.52998734px;text-anchor:start;fill:#515151;marker:none;font-family:Flamenco;-inkscape-font-specification:Flamenco Bold"
           id="path3068" />
        <path
           d="m 209.28082,522.09995 c 1.42333,10e-6 2.57833,-0.48999 3.465,-1.47 0.90999,-0.97999 1.36499,-2.23999 1.365,-3.78 -1e-5,-1.56332 -0.45501,-2.83499 -1.365,-3.815 -0.88667,-1.00332 -2.04167,-1.50498 -3.465,-1.505 -1.42334,2e-5 -2.59,0.50168 -3.5,1.505 -0.88667,0.98001 -1.33,2.25168 -1.33,3.815 0,1.54001 0.44333,2.80001 1.33,3.78 0.91,0.98001 2.07666,1.47001 3.5,1.47 m -4.865,-0.315 c -1.23666,-1.30666 -1.855,-2.96332 -1.855,-4.97 0,-2.00665 0.63,-3.65165 1.89,-4.935 1.26,-1.30665 2.87,-1.95998 4.83,-1.96 1.95999,2e-5 3.55833,0.65335 4.795,1.96 1.25999,1.28335 1.88999,2.94001 1.89,4.97 -1e-5,2.00668 -0.63001,3.65167 -1.89,4.935 -1.23667,1.28334 -2.84667,1.925 -4.83,1.925 -1.96,0 -3.57,-0.64166 -4.83,-1.925"
           style="font-size:35px;font-weight:bold;text-align:start;word-spacing:40.52998734px;text-anchor:start;fill:#515151;marker:none;font-family:Flamenco;-inkscape-font-specification:Flamenco Bold"
           id="path3070" />
        <path
           d="m 218.41036,510.26995 1.785,0 c 1.46999,2e-5 2.22832,0.79335 2.275,2.38 1.25999,-1.81998 2.75332,-2.72998 4.48,-2.73 0.97998,2e-5 1.80832,0.18668 2.485,0.56 0.32665,0.18668 0.48998,0.43168 0.49,0.735 l 0,2.94 c -2e-5,0.23335 -0.0934,0.43168 -0.28,0.595 -0.18668,0.14001 -0.40835,0.21001 -0.665,0.21 -0.25668,10e-6 -0.47835,-0.07 -0.665,-0.21 -0.18668,-0.16332 -0.28002,-0.36165 -0.28,-0.595 l 0,-2.45 c -0.30335,-0.11665 -0.75835,-0.17498 -1.365,-0.175 -0.60668,2e-5 -1.29501,0.29168 -2.065,0.875 -0.77001,0.56002 -1.43501,1.40001 -1.995,2.52 l 0,7.98 c -10e-6,0.23334 -0.0933,0.42 -0.28,0.56 -0.18668,0.16334 -0.40834,0.245 -0.665,0.245 -0.25668,0 -0.47834,-0.0817 -0.665,-0.245 -0.18667,-0.14 -0.28001,-0.32666 -0.28,-0.56 l 0,-10.325 c -1e-5,-0.44332 -0.23334,-0.66498 -0.7,-0.665 l -1.61,0 c -0.23334,2e-5 -0.43167,-0.07 -0.595,-0.21 -0.14001,-0.16332 -0.21,-0.36165 -0.21,-0.595 0,-0.23332 0.07,-0.43165 0.21,-0.595 0.16333,-0.16332 0.36166,-0.24498 0.595,-0.245"
           style="font-size:35px;font-weight:bold;text-align:start;word-spacing:40.52998734px;text-anchor:start;fill:#515151;marker:none;font-family:Flamenco;-inkscape-font-specification:Flamenco Bold"
           id="path3072" />
        <path
           d="m 242.17371,521.11995 c 0.18666,-0.11666 0.39666,-0.15166 0.63,-0.105 0.25666,0.0467 0.43166,0.15167 0.525,0.315 0.0933,0.14001 0.13999,0.26834 0.14,0.385 -10e-6,0.35001 -0.12834,0.60667 -0.385,0.77 -1.40001,0.81667 -2.905,1.225 -4.515,1.225 -1.61,0 -2.765,-0.32666 -3.465,-0.98 -0.7,-0.67666 -1.05,-1.78499 -1.05,-3.325 l 0,-7.49 -1.96,0 c -0.23333,2e-5 -0.43166,-0.07 -0.595,-0.21 -0.14,-0.16332 -0.21,-0.36165 -0.21,-0.595 0,-0.23332 0.07,-0.43165 0.21,-0.595 0.16334,-0.16332 0.36167,-0.24498 0.595,-0.245 l 1.96,0 0,-5.005 c 0,-0.23331 0.0933,-0.41998 0.28,-0.56 0.18667,-0.16331 0.40833,-0.24498 0.665,-0.245 0.25667,2e-5 0.47833,0.0817 0.665,0.245 0.18667,0.14002 0.28,0.32669 0.28,0.56 l 0,5.005 5.88,0 c 0.23333,2e-5 0.41999,0.0817 0.56,0.245 0.16333,0.16335 0.24499,0.36168 0.245,0.595 -1e-5,0.23335 -0.0817,0.43168 -0.245,0.595 -0.14001,0.14002 -0.32667,0.21002 -0.56,0.21 l -5.88,0 0,7.49 c 0,0.98001 0.19833,1.68001 0.595,2.1 0.42,0.39667 1.17833,0.59501 2.275,0.595 1.12,10e-6 2.23999,-0.32666 3.36,-0.98"
           style="font-size:35px;font-weight:bold;text-align:start;word-spacing:40.52998734px;text-anchor:start;fill:#515151;marker:none;font-family:Flamenco;-inkscape-font-specification:Flamenco Bold"
           id="path3074" />
        <path
           d="m 248.08543,522.90495 c 0,0.23334 -0.0933,0.42 -0.28,0.56 -0.18667,0.16334 -0.40833,0.245 -0.665,0.245 -0.25667,0 -0.47833,-0.0817 -0.665,-0.245 -0.18667,-0.14 -0.28,-0.32666 -0.28,-0.56 l 0,-24.15 -2.31,0 c -0.23333,3e-5 -0.42,-0.07 -0.56,-0.21 -0.16333,-0.1633 -0.245,-0.36164 -0.245,-0.595 0,-0.2333 0.0817,-0.43164 0.245,-0.595 0.14,-0.1633 0.32667,-0.24497 0.56,-0.245 l 3.29,0 c 0.23333,3e-5 0.44333,0.0817 0.63,0.245 0.18667,0.16336 0.28,0.3617 0.28,0.595 l 0,14.665 c 1.44666,-1.84332 3.16166,-2.76498 5.145,-2.765 1.30666,2e-5 2.34499,0.33835 3.115,1.015 0.79332,0.65335 1.18999,1.57502 1.19,2.765 l 0,7.455 c -1e-5,0.42001 0.31499,0.63001 0.945,0.63 l 1.365,0 c 0.23332,10e-6 0.41999,0.0817 0.56,0.245 0.16332,0.16334 0.24499,0.36167 0.245,0.595 -10e-6,0.23334 -0.0817,0.43167 -0.245,0.595 -0.14001,0.14 -0.32668,0.21 -0.56,0.21 l -1.365,0 c -1.89001,0 -2.83501,-0.75833 -2.835,-2.275 l 0,-7.455 c -1e-5,-1.44665 -0.80501,-2.16998 -2.415,-2.17 -2.14667,2e-5 -3.86167,1.14335 -5.145,3.43 l 0,8.015"
           style="font-size:35px;font-weight:bold;text-align:start;word-spacing:40.52998734px;text-anchor:start;fill:#515151;marker:none;font-family:Flamenco;-inkscape-font-specification:Flamenco Bold"
           id="path3076" />
        <path
           d="m 272.77684,515.65995 c -0.07,-1.25999 -0.44335,-2.26332 -1.12,-3.01 -0.65334,-0.74665 -1.61001,-1.11998 -2.87,-1.12 -1.23667,2e-5 -2.27501,0.38502 -3.115,1.155 -0.84,0.74668 -1.365,1.73835 -1.575,2.975 l 8.68,0 m 0.07,4.34 c 0.16332,-0.27999 0.34999,-0.41999 0.56,-0.42 0.20999,10e-6 0.41999,0.0583 0.63,0.175 0.20999,0.0933 0.34999,0.25667 0.42,0.49 0.0933,0.21001 0.0817,0.40834 -0.035,0.595 -1.19001,1.91334 -3.08001,2.87 -5.67,2.87 -2.05334,0 -3.675,-0.65333 -4.865,-1.96 -1.16667,-1.32999 -1.75,-2.99832 -1.75,-5.005 0,-2.00665 0.60666,-3.63998 1.82,-4.9 1.21333,-1.28332 2.81166,-1.92498 4.795,-1.925 1.98332,2e-5 3.45332,0.59502 4.41,1.785 0.97999,1.19002 1.46999,2.77668 1.47,4.76 -1e-5,0.53668 -0.30335,0.80501 -0.91,0.805 l -9.695,0.035 c 0.0933,1.44668 0.56,2.61334 1.4,3.5 0.86333,0.86334 1.97166,1.29501 3.325,1.295 1.81999,10e-6 3.18499,-0.69999 4.095,-2.1"
           style="font-size:35px;font-weight:bold;text-align:start;word-spacing:40.52998734px;text-anchor:start;fill:#515151;marker:none;font-family:Flamenco;-inkscape-font-specification:Flamenco Bold"
           id="path3078" />
        <path
           d="m 277.0627,510.26995 1.785,0 c 1.46999,2e-5 2.22833,0.79335 2.275,2.38 1.25999,-1.81998 2.75332,-2.72998 4.48,-2.73 0.97999,2e-5 1.80832,0.18668 2.485,0.56 0.32665,0.18668 0.48999,0.43168 0.49,0.735 l 0,2.94 c -10e-6,0.23335 -0.0933,0.43168 -0.28,0.595 -0.18668,0.14001 -0.40835,0.21001 -0.665,0.21 -0.25668,10e-6 -0.47835,-0.07 -0.665,-0.21 -0.18668,-0.16332 -0.28001,-0.36165 -0.28,-0.595 l 0,-2.45 c -0.30334,-0.11665 -0.75834,-0.17498 -1.365,-0.175 -0.60668,2e-5 -1.29501,0.29168 -2.065,0.875 -0.77001,0.56002 -1.43501,1.40001 -1.995,2.52 l 0,7.98 c -10e-6,0.23334 -0.0933,0.42 -0.28,0.56 -0.18667,0.16334 -0.40834,0.245 -0.665,0.245 -0.25667,0 -0.47834,-0.0817 -0.665,-0.245 -0.18667,-0.14 -0.28,-0.32666 -0.28,-0.56 l 0,-10.325 c 0,-0.44332 -0.23334,-0.66498 -0.7,-0.665 l -1.61,0 c -0.23334,2e-5 -0.43167,-0.07 -0.595,-0.21 -0.14,-0.16332 -0.21,-0.36165 -0.21,-0.595 0,-0.23332 0.07,-0.43165 0.21,-0.595 0.16333,-0.16332 0.36166,-0.24498 0.595,-0.245"
           style="font-size:35px;font-weight:bold;text-align:start;word-spacing:40.52998734px;text-anchor:start;fill:#515151;marker:none;font-family:Flamenco;-inkscape-font-specification:Flamenco Bold"
           id="path3080" />
        <path
           d="m 291.90106,511.91495 -1.645,0 c -0.23334,2e-5 -0.43167,-0.07 -0.595,-0.21 -0.14,-0.16332 -0.21,-0.36165 -0.21,-0.595 0,-0.23332 0.07,-0.43165 0.21,-0.595 0.16333,-0.16332 0.36166,-0.24498 0.595,-0.245 l 1.89,0 c 1.44666,2e-5 2.16999,0.79335 2.17,2.38 1.39999,-1.81998 3.16166,-2.72998 5.285,-2.73 1.25999,2e-5 2.28665,0.32668 3.08,0.98 0.81665,0.63002 1.22498,1.56335 1.225,2.8 l 0,7.35 c -2e-5,0.44334 0.31498,0.66501 0.945,0.665 l 1.365,0 c 0.23331,10e-6 0.41998,0.0817 0.56,0.245 0.16331,0.16334 0.24498,0.36167 0.245,0.595 -2e-5,0.23334 -0.0817,0.43167 -0.245,0.595 -0.14002,0.14 -0.32669,0.21 -0.56,0.21 l -1.365,0 c -1.89002,0 -2.83501,-0.75833 -2.835,-2.275 l 0,-7.385 c -10e-6,-0.69998 -0.22168,-1.23665 -0.665,-1.61 -0.42001,-0.37332 -1.01501,-0.55998 -1.785,-0.56 -2.14668,2e-5 -3.85001,1.12002 -5.11,3.36 l 0,8.015 c -10e-6,0.23334 -0.0933,0.42 -0.28,0.56 -0.18667,0.16334 -0.40834,0.245 -0.665,0.245 -0.25667,0 -0.47834,-0.0817 -0.665,-0.245 -0.18667,-0.14 -0.28,-0.32666 -0.28,-0.56 l 0,-10.325 c 0,-0.44332 -0.22167,-0.66498 -0.665,-0.665"
           style="font-size:35px;font-weight:bold;text-align:start;word-spacing:40.52998734px;text-anchor:start;fill:#515151;marker:none;font-family:Flamenco;-inkscape-font-specification:Flamenco Bold"
           id="path3082" />
        <path
           d="m 360.79745,503.72495 0,9.87 7,0 c 3.84998,10e-6 5.77498,-1.65665 5.775,-4.97 -2e-5,-1.74998 -0.49002,-2.99831 -1.47,-3.745 -0.95668,-0.76998 -2.39168,-1.15498 -4.305,-1.155 l -7,0 m 0,11.48 0,7.7 c -1e-5,0.23334 -0.0933,0.42 -0.28,0.56 -0.18667,0.16334 -0.40834,0.245 -0.665,0.245 -0.25667,0 -0.47834,-0.0817 -0.665,-0.245 -0.18667,-0.14 -0.28001,-0.32666 -0.28,-0.56 l 0,-19.18 -2.1,0 c -0.23334,2e-5 -0.43167,-0.07 -0.595,-0.21 -0.14,-0.16331 -0.21,-0.36164 -0.21,-0.595 0,-0.23331 0.07,-0.43164 0.21,-0.595 0.16333,-0.16331 0.36166,-0.24497 0.595,-0.245 l 10.99,0 c 5.10998,3e-5 7.66498,2.18169 7.665,6.545 -2e-5,3.15002 -1.38835,5.18001 -4.165,6.09 l 4.515,7.805 c 0.0466,0.0933 0.07,0.19834 0.07,0.315 -2e-5,0.32667 -0.14002,0.56 -0.42,0.7 -0.25669,0.14 -0.49002,0.21 -0.7,0.21 -0.21002,0 -0.39669,-0.12833 -0.56,-0.385 l -4.795,-8.225 c -0.60668,0.0467 -1.14335,0.07 -1.61,0.07 l -7,0"
           style="font-size:35px;font-weight:bold;text-align:start;word-spacing:40.52998734px;text-anchor:start;fill:#515151;marker:none;font-family:Flamenco;-inkscape-font-specification:Flamenco Bold"
           id="path3084" />
        <path
           d="m 385.02565,522.09995 c 1.42333,10e-6 2.57832,-0.48999 3.465,-1.47 0.90999,-0.97999 1.36499,-2.23999 1.365,-3.78 -1e-5,-1.56332 -0.45501,-2.83499 -1.365,-3.815 -0.88668,-1.00332 -2.04167,-1.50498 -3.465,-1.505 -1.42334,2e-5 -2.59,0.50168 -3.5,1.505 -0.88667,0.98001 -1.33,2.25168 -1.33,3.815 0,1.54001 0.44333,2.80001 1.33,3.78 0.91,0.98001 2.07666,1.47001 3.5,1.47 m -4.865,-0.315 c -1.23667,-1.30666 -1.855,-2.96332 -1.855,-4.97 0,-2.00665 0.63,-3.65165 1.89,-4.935 1.26,-1.30665 2.87,-1.95998 4.83,-1.96 1.95999,2e-5 3.55832,0.65335 4.795,1.96 1.25999,1.28335 1.88999,2.94001 1.89,4.97 -10e-6,2.00668 -0.63001,3.65167 -1.89,4.935 -1.23668,1.28334 -2.84668,1.925 -4.83,1.925 -1.96,0 -3.57,-0.64166 -4.83,-1.925"
           style="font-size:35px;font-weight:bold;text-align:start;word-spacing:40.52998734px;text-anchor:start;fill:#515151;marker:none;font-family:Flamenco;-inkscape-font-specification:Flamenco Bold"
           id="path3086" />
        <path
           d="m 397.37518,519.99995 c 1.54,1.40001 3.03333,2.10001 4.48,2.1 1.46999,10e-6 2.60166,-0.48999 3.395,-1.47 0.79332,-0.97999 1.18999,-2.27499 1.19,-3.885 -10e-6,-1.60999 -0.39668,-2.88165 -1.19,-3.815 -0.77001,-0.93332 -1.83167,-1.39998 -3.185,-1.4 -1.91334,2e-5 -3.47667,1.08502 -4.69,3.255 l 0,5.215 m -1.89,-21.245 -2.31,0 c -0.23333,3e-5 -0.42,-0.07 -0.56,-0.21 -0.16333,-0.1633 -0.245,-0.36164 -0.245,-0.595 0,-0.2333 0.0817,-0.43164 0.245,-0.595 0.14,-0.1633 0.32667,-0.24497 0.56,-0.245 l 3.255,0 c 0.23333,3e-5 0.44333,0.0817 0.63,0.245 0.21,0.16336 0.315,0.3617 0.315,0.595 l 0,14.63 c 1.19,-1.77332 2.77666,-2.65998 4.76,-2.66 1.98332,2e-5 3.49999,0.63002 4.55,1.89 1.07332,1.26002 1.60999,2.91668 1.61,4.97 -1e-5,2.05334 -0.54835,3.72167 -1.645,5.005 -1.09668,1.28334 -2.55501,1.925 -4.375,1.925 -1.82,0 -3.45334,-0.66499 -4.9,-1.995 l 0,1.19 c 0,0.23334 -0.0933,0.42 -0.28,0.56 -0.18667,0.16334 -0.40833,0.245 -0.665,0.245 -0.25667,0 -0.47833,-0.0817 -0.665,-0.245 -0.18667,-0.14 -0.28,-0.32666 -0.28,-0.56 l 0,-24.15"
           style="font-size:35px;font-weight:bold;text-align:start;word-spacing:40.52998734px;text-anchor:start;fill:#515151;marker:none;font-family:Flamenco;-inkscape-font-specification:Flamenco Bold"
           id="path3088" />
        <path
           d="m 417.97487,522.09995 c 1.42332,10e-6 2.57832,-0.48999 3.465,-1.47 0.90999,-0.97999 1.36499,-2.23999 1.365,-3.78 -10e-6,-1.56332 -0.45501,-2.83499 -1.365,-3.815 -0.88668,-1.00332 -2.04168,-1.50498 -3.465,-1.505 -1.42334,2e-5 -2.59001,0.50168 -3.5,1.505 -0.88667,0.98001 -1.33,2.25168 -1.33,3.815 0,1.54001 0.44333,2.80001 1.33,3.78 0.90999,0.98001 2.07666,1.47001 3.5,1.47 m -4.865,-0.315 c -1.23667,-1.30666 -1.855,-2.96332 -1.855,-4.97 0,-2.00665 0.63,-3.65165 1.89,-4.935 1.26,-1.30665 2.86999,-1.95998 4.83,-1.96 1.95999,2e-5 3.55832,0.65335 4.795,1.96 1.25999,1.28335 1.88999,2.94001 1.89,4.97 -1e-5,2.00668 -0.63001,3.65167 -1.89,4.935 -1.23668,1.28334 -2.84668,1.925 -4.83,1.925 -1.96001,0 -3.57,-0.64166 -4.83,-1.925"
           style="font-size:35px;font-weight:bold;text-align:start;word-spacing:40.52998734px;text-anchor:start;fill:#515151;marker:none;font-family:Flamenco;-inkscape-font-specification:Flamenco Bold"
           id="path3090" />
        <path
           d="m 437.40096,521.11995 c 0.18666,-0.11666 0.39666,-0.15166 0.63,-0.105 0.25666,0.0467 0.43166,0.15167 0.525,0.315 0.0933,0.14001 0.13999,0.26834 0.14,0.385 -1e-5,0.35001 -0.12834,0.60667 -0.385,0.77 -1.40001,0.81667 -2.90501,1.225 -4.515,1.225 -1.61,0 -2.765,-0.32666 -3.465,-0.98 -0.7,-0.67666 -1.05,-1.78499 -1.05,-3.325 l 0,-7.49 -1.96,0 c -0.23333,2e-5 -0.43166,-0.07 -0.595,-0.21 -0.14,-0.16332 -0.21,-0.36165 -0.21,-0.595 0,-0.23332 0.07,-0.43165 0.21,-0.595 0.16334,-0.16332 0.36167,-0.24498 0.595,-0.245 l 1.96,0 0,-5.005 c 0,-0.23331 0.0933,-0.41998 0.28,-0.56 0.18667,-0.16331 0.40833,-0.24498 0.665,-0.245 0.25667,2e-5 0.47833,0.0817 0.665,0.245 0.18667,0.14002 0.28,0.32669 0.28,0.56 l 0,5.005 5.88,0 c 0.23333,2e-5 0.41999,0.0817 0.56,0.245 0.16333,0.16335 0.24499,0.36168 0.245,0.595 -10e-6,0.23335 -0.0817,0.43168 -0.245,0.595 -0.14001,0.14002 -0.32667,0.21002 -0.56,0.21 l -5.88,0 0,7.49 c 0,0.98001 0.19833,1.68001 0.595,2.1 0.42,0.39667 1.17833,0.59501 2.275,0.595 1.11999,10e-6 2.23999,-0.32666 3.36,-0.98"
           style="font-size:35px;font-weight:bold;text-align:start;word-spacing:40.52998734px;text-anchor:start;fill:#515151;marker:none;font-family:Flamenco;-inkscape-font-specification:Flamenco Bold"
           id="path3092" />
        <path
           d="m 444.2927,522.90495 c -1e-5,0.23334 -0.0933,0.42 -0.28,0.56 -0.18667,0.16334 -0.40834,0.245 -0.665,0.245 -0.25667,0 -0.47834,-0.0817 -0.665,-0.245 -0.18667,-0.14 -0.28001,-0.32666 -0.28,-0.56 l 0,-10.99 -2.31,0 c -0.23334,2e-5 -0.43167,-0.07 -0.595,-0.21 -0.14,-0.16332 -0.21,-0.36165 -0.21,-0.595 0,-0.23332 0.07,-0.43165 0.21,-0.595 0.16333,-0.16332 0.36166,-0.24498 0.595,-0.245 l 3.395,0 c 0.53666,2e-5 0.80499,0.26835 0.805,0.805 l 0,11.83 m -1.96,-17.885 c -0.21001,-0.23331 -0.31501,-0.51331 -0.315,-0.84 -10e-6,-0.32664 0.10499,-0.60664 0.315,-0.84 0.20999,-0.23331 0.50166,-0.34997 0.875,-0.35 0.37333,3e-5 0.66499,0.11669 0.875,0.35 0.23333,0.23336 0.34999,0.51336 0.35,0.84 -1e-5,0.32669 -0.11667,0.60669 -0.35,0.84 -0.21001,0.23336 -0.50167,0.35002 -0.875,0.35 -0.37334,2e-5 -0.66501,-0.11664 -0.875,-0.35"
           style="font-size:35px;font-weight:bold;text-align:start;word-spacing:40.52998734px;text-anchor:start;fill:#515151;marker:none;font-family:Flamenco;-inkscape-font-specification:Flamenco Bold"
           id="path3094" />
        <path
           d="m 458.77559,519.99995 c 0.18665,-0.27999 0.37332,-0.41999 0.56,-0.42 0.20999,10e-6 0.41999,0.0467 0.63,0.14 0.32665,0.14001 0.48998,0.33834 0.49,0.595 -2e-5,0.23334 -0.035,0.40834 -0.105,0.525 -1.19001,1.91334 -3.08001,2.87 -5.67,2.87 -1.98334,0 -3.57001,-0.66499 -4.76,-1.995 -1.19,-1.35333 -1.785,-3.00999 -1.785,-4.97 0,-1.95999 0.61833,-3.58165 1.855,-4.865 1.25999,-1.30665 2.81166,-1.95998 4.655,-1.96 1.86666,2e-5 3.48832,0.43168 4.865,1.295 0.27999,0.18668 0.41999,0.40835 0.42,0.665 l 0,2.94 c -10e-6,0.23335 -0.0933,0.43168 -0.28,0.595 -0.18668,0.14001 -0.40835,0.21001 -0.665,0.21 -0.25668,10e-6 -0.47835,-0.07 -0.665,-0.21 -0.18668,-0.16332 -0.28001,-0.36165 -0.28,-0.595 l 0,-2.485 c -0.93335,-0.53665 -2.05334,-0.80498 -3.36,-0.805 -1.30667,2e-5 -2.41501,0.49002 -3.325,1.47 -0.91001,0.98001 -1.365,2.25168 -1.365,3.815 0,1.54001 0.43166,2.81168 1.295,3.815 0.88666,0.98001 2.01833,1.47001 3.395,1.47 1.81999,10e-6 3.18499,-0.69999 4.095,-2.1"
           style="font-size:35px;font-weight:bold;text-align:start;word-spacing:40.52998734px;text-anchor:start;fill:#515151;marker:none;font-family:Flamenco;-inkscape-font-specification:Flamenco Bold"
           id="path3096" />
        <path
           d="m 463.31465,521.99495 0,-2.835 c 0,-0.23332 0.0933,-0.41999 0.28,-0.56 0.18667,-0.16332 0.40833,-0.24499 0.665,-0.245 0.25666,10e-6 0.47833,0.0817 0.665,0.245 0.18666,0.14001 0.28,0.32668 0.28,0.56 l 0,2.38 c 1.12,0.37334 2.28666,0.56001 3.5,0.56 2.65999,10e-6 3.98999,-0.74666 3.99,-2.24 -1e-5,-1.11999 -1.24834,-1.94832 -3.745,-2.485 -0.11667,-0.0233 -0.37334,-0.0817 -0.77,-0.175 -0.39667,-0.0933 -0.72334,-0.16332 -0.98,-0.21 -0.25667,-0.07 -0.68834,-0.20999 -1.295,-0.42 -0.58334,-0.23332 -1.00334,-0.46665 -1.26,-0.7 -0.7,-0.62999 -1.05,-1.39999 -1.05,-2.31 0,-0.93332 0.30333,-1.67998 0.91,-2.24 0.63,-0.58332 1.31833,-0.95665 2.065,-1.12 0.74666,-0.18665 1.56333,-0.27998 2.45,-0.28 1.63333,2e-5 3.13832,0.31502 4.515,0.945 0.41999,0.18668 0.62999,0.44335 0.63,0.77 l 0,2.695 c -10e-6,0.23335 -0.0933,0.43168 -0.28,0.595 -0.18668,0.14001 -0.40834,0.21001 -0.665,0.21 -0.25668,10e-6 -0.47834,-0.07 -0.665,-0.21 -0.18668,-0.16332 -0.28001,-0.36165 -0.28,-0.595 l 0,-2.24 c -0.93334,-0.37332 -2.01834,-0.55998 -3.255,-0.56 -2.38,2e-5 -3.57,0.67668 -3.57,2.03 0,0.49001 0.15166,0.82835 0.455,1.015 0.32666,0.18668 0.56,0.32668 0.7,0.42 0.16333,0.0933 0.44333,0.18668 0.84,0.28 0.55999,0.14001 1.13166,0.26835 1.715,0.385 0.58333,0.11668 1.06166,0.22168 1.435,0.315 0.37332,0.0933 0.83999,0.25668 1.4,0.49 0.58332,0.21001 1.03832,0.45501 1.365,0.735 0.81666,0.65334 1.22499,1.50501 1.225,2.555 -1e-5,1.05001 -0.35001,1.89001 -1.05,2.52 -0.67668,0.60667 -1.42334,0.99167 -2.24,1.155 -0.79334,0.18667 -1.65667,0.28 -2.59,0.28 -1.84334,0 -3.43,-0.30333 -4.76,-0.91 -0.42,-0.18666 -0.63,-0.45499 -0.63,-0.805"
           style="font-size:35px;font-weight:bold;text-align:start;word-spacing:40.52998734px;text-anchor:start;fill:#515151;marker:none;font-family:Flamenco;-inkscape-font-specification:Flamenco Bold"
           id="path3098" />
        <path
           d="m 542.96806,519.64995 0,2.905 c -2e-5,0.53667 -0.26836,0.805 -0.805,0.805 l -13.23,0 c -0.39667,0 -0.66501,-0.07 -0.805,-0.21 -0.11667,-0.13999 -0.17501,-0.34999 -0.175,-0.63 l 0,-18.795 -2.065,0 c -0.23334,2e-5 -0.43167,-0.07 -0.595,-0.21 -0.14,-0.16331 -0.21,-0.36164 -0.21,-0.595 0,-0.23331 0.07,-0.43164 0.21,-0.595 0.16333,-0.16331 0.36166,-0.24497 0.595,-0.245 l 6.02,0 c 0.23332,3e-5 0.41999,0.0817 0.56,0.245 0.16332,0.16336 0.24499,0.36169 0.245,0.595 -1e-5,0.23336 -0.0817,0.43169 -0.245,0.595 -0.14001,0.14002 -0.32668,0.21002 -0.56,0.21 l -2.065,0 0,17.99 11.235,0 0,-2.065 c -2e-5,-0.23332 0.0933,-0.41999 0.28,-0.56 0.18665,-0.16332 0.40831,-0.24499 0.665,-0.245 0.25665,10e-6 0.47831,0.0817 0.665,0.245 0.18664,0.14001 0.27998,0.32668 0.28,0.56"
           style="font-size:35px;font-weight:bold;text-align:start;word-spacing:40.52998734px;text-anchor:start;fill:#515151;marker:none;font-family:Flamenco;-inkscape-font-specification:Flamenco Bold"
           id="path3100" />
        <path
           d="m 554.37696,517.93495 c -1.54001,-0.41999 -2.85834,-0.62999 -3.955,-0.63 -1.07334,1e-5 -1.96,0.21001 -2.66,0.63 -0.67667,0.42001 -1.015,1.01501 -1.015,1.785 0,0.74667 0.22167,1.33001 0.665,1.75 0.44333,0.42001 1.05,0.63001 1.82,0.63 2.14666,10e-6 3.86166,-1.16666 5.145,-3.5 l 0,-0.665 m 2.8,3.78 1.365,0 c 0.23332,10e-6 0.41999,0.0817 0.56,0.245 0.16332,0.16334 0.24499,0.36167 0.245,0.595 -10e-6,0.23334 -0.0817,0.43167 -0.245,0.595 -0.14001,0.14 -0.32668,0.21 -0.56,0.21 l -1.54,0 c -0.84001,0 -1.49334,-0.18666 -1.96,-0.56 -0.44334,-0.37333 -0.66501,-0.89833 -0.665,-1.575 -1e-5,-0.11666 0.0117,-0.24499 0.035,-0.385 -1.23667,1.91334 -3.03334,2.87 -5.39,2.87 -1.30667,0 -2.33333,-0.35 -3.08,-1.05 -0.72333,-0.69999 -1.085,-1.66833 -1.085,-2.905 0,-1.25999 0.49,-2.23999 1.47,-2.94 1.00333,-0.72332 2.24,-1.08499 3.71,-1.085 1.49333,10e-6 2.93999,0.24501 4.34,0.735 l 0,-2.415 c -1e-5,-1.11998 -0.40834,-1.84332 -1.225,-2.17 -0.63001,-0.23332 -1.50501,-0.34998 -2.625,-0.35 -1.09667,2e-5 -2.11167,0.18668 -3.045,0.56 l 0,2.205 c 0,0.23335 -0.0933,0.43168 -0.28,0.595 -0.18667,0.14001 -0.40833,0.21001 -0.665,0.21 -0.25667,10e-6 -0.47833,-0.07 -0.665,-0.21 -0.18667,-0.16332 -0.28,-0.36165 -0.28,-0.595 l 0,-2.66 c 0,-0.30332 0.15167,-0.53665 0.455,-0.7 1.14333,-0.67665 2.66,-1.01498 4.55,-1.015 1.88999,2e-5 3.30166,0.31502 4.235,0.945 0.93332,0.60668 1.39999,1.66835 1.4,3.185 l 0,7 c -10e-6,0.44334 0.31499,0.66501 0.945,0.665"
           style="font-size:35px;font-weight:bold;text-align:start;word-spacing:40.52998734px;text-anchor:start;fill:#515151;marker:none;font-family:Flamenco;-inkscape-font-specification:Flamenco Bold"
           id="path3102" />
        <path
           d="m 563.34462,519.99995 c 1.53999,1.40001 3.03333,2.10001 4.48,2.1 1.46999,10e-6 2.60165,-0.48999 3.395,-1.47 0.79332,-0.97999 1.18999,-2.27499 1.19,-3.885 -10e-6,-1.60999 -0.39668,-2.88165 -1.19,-3.815 -0.77001,-0.93332 -1.83168,-1.39998 -3.185,-1.4 -1.91334,2e-5 -3.47667,1.08502 -4.69,3.255 l 0,5.215 m -1.89,-21.245 -2.31,0 c -0.23333,3e-5 -0.42,-0.07 -0.56,-0.21 -0.16333,-0.1633 -0.245,-0.36164 -0.245,-0.595 0,-0.2333 0.0817,-0.43164 0.245,-0.595 0.14,-0.1633 0.32667,-0.24497 0.56,-0.245 l 3.255,0 c 0.23333,3e-5 0.44333,0.0817 0.63,0.245 0.21,0.16336 0.31499,0.3617 0.315,0.595 l 0,14.63 c 1.18999,-1.77332 2.77666,-2.65998 4.76,-2.66 1.98332,2e-5 3.49999,0.63002 4.55,1.89 1.07332,1.26002 1.60998,2.91668 1.61,4.97 -2e-5,2.05334 -0.54835,3.72167 -1.645,5.005 -1.09668,1.28334 -2.55501,1.925 -4.375,1.925 -1.82001,0 -3.45334,-0.66499 -4.9,-1.995 l 0,1.19 c -10e-6,0.23334 -0.0933,0.42 -0.28,0.56 -0.18667,0.16334 -0.40834,0.245 -0.665,0.245 -0.25667,0 -0.47834,-0.0817 -0.665,-0.245 -0.18667,-0.14 -0.28,-0.32666 -0.28,-0.56 l 0,-24.15"
           style="font-size:35px;font-weight:bold;text-align:start;word-spacing:40.52998734px;text-anchor:start;fill:#515151;marker:none;font-family:Flamenco;-inkscape-font-specification:Flamenco Bold"
           id="path3104" />
        <path
           d="m 583.94431,522.09995 c 1.42332,10e-6 2.57832,-0.48999 3.465,-1.47 0.90998,-0.97999 1.36498,-2.23999 1.365,-3.78 -2e-5,-1.56332 -0.45502,-2.83499 -1.365,-3.815 -0.88668,-1.00332 -2.04168,-1.50498 -3.465,-1.505 -1.42334,2e-5 -2.59001,0.50168 -3.5,1.505 -0.88667,0.98001 -1.33001,2.25168 -1.33,3.815 -1e-5,1.54001 0.44333,2.80001 1.33,3.78 0.90999,0.98001 2.07666,1.47001 3.5,1.47 m -4.865,-0.315 c -1.23667,-1.30666 -1.855,-2.96332 -1.855,-4.97 0,-2.00665 0.62999,-3.65165 1.89,-4.935 1.25999,-1.30665 2.86999,-1.95998 4.83,-1.96 1.95999,2e-5 3.55832,0.65335 4.795,1.96 1.25998,1.28335 1.88998,2.94001 1.89,4.97 -2e-5,2.00668 -0.63002,3.65167 -1.89,4.935 -1.23668,1.28334 -2.84668,1.925 -4.83,1.925 -1.96001,0 -3.57001,-0.64166 -4.83,-1.925"
           style="font-size:35px;font-weight:bold;text-align:start;word-spacing:40.52998734px;text-anchor:start;fill:#515151;marker:none;font-family:Flamenco;-inkscape-font-specification:Flamenco Bold"
           id="path3106" />
        <path
           d="m 593.07384,510.26995 1.785,0 c 1.46999,2e-5 2.22833,0.79335 2.275,2.38 1.25999,-1.81998 2.75332,-2.72998 4.48,-2.73 0.97999,2e-5 1.80832,0.18668 2.485,0.56 0.32665,0.18668 0.48999,0.43168 0.49,0.735 l 0,2.94 c -10e-6,0.23335 -0.0933,0.43168 -0.28,0.595 -0.18668,0.14001 -0.40835,0.21001 -0.665,0.21 -0.25668,10e-6 -0.47835,-0.07 -0.665,-0.21 -0.18668,-0.16332 -0.28001,-0.36165 -0.28,-0.595 l 0,-2.45 c -0.30335,-0.11665 -0.75835,-0.17498 -1.365,-0.175 -0.60668,2e-5 -1.29501,0.29168 -2.065,0.875 -0.77001,0.56002 -1.43501,1.40001 -1.995,2.52 l 0,7.98 c -10e-6,0.23334 -0.0933,0.42 -0.28,0.56 -0.18667,0.16334 -0.40834,0.245 -0.665,0.245 -0.25667,0 -0.47834,-0.0817 -0.665,-0.245 -0.18667,-0.14 -0.28001,-0.32666 -0.28,-0.56 l 0,-10.325 c -10e-6,-0.44332 -0.23334,-0.66498 -0.7,-0.665 l -1.61,0 c -0.23334,2e-5 -0.43167,-0.07 -0.595,-0.21 -0.14,-0.16332 -0.21,-0.36165 -0.21,-0.595 0,-0.23332 0.07,-0.43165 0.21,-0.595 0.16333,-0.16332 0.36166,-0.24498 0.595,-0.245"
           style="font-size:35px;font-weight:bold;text-align:start;word-spacing:40.52998734px;text-anchor:start;fill:#515151;marker:none;font-family:Flamenco;-inkscape-font-specification:Flamenco Bold"
           id="path3108" />
        <path
           d="m 616.2422,517.93495 c -1.54001,-0.41999 -2.85834,-0.62999 -3.955,-0.63 -1.07334,1e-5 -1.96001,0.21001 -2.66,0.63 -0.67667,0.42001 -1.01501,1.01501 -1.015,1.785 -10e-6,0.74667 0.22166,1.33001 0.665,1.75 0.44333,0.42001 1.04999,0.63001 1.82,0.63 2.14666,10e-6 3.86165,-1.16666 5.145,-3.5 l 0,-0.665 m 2.8,3.78 1.365,0 c 0.23332,10e-6 0.41998,0.0817 0.56,0.245 0.16331,0.16334 0.24498,0.36167 0.245,0.595 -2e-5,0.23334 -0.0817,0.43167 -0.245,0.595 -0.14002,0.14 -0.32668,0.21 -0.56,0.21 l -1.54,0 c -0.84002,0 -1.49335,-0.18666 -1.96,-0.56 -0.44335,-0.37333 -0.66501,-0.89833 -0.665,-1.575 -10e-6,-0.11666 0.0117,-0.24499 0.035,-0.385 -1.23668,1.91334 -3.03334,2.87 -5.39,2.87 -1.30667,0 -2.33334,-0.35 -3.08,-1.05 -0.72334,-0.69999 -1.085,-1.66833 -1.085,-2.905 0,-1.25999 0.49,-2.23999 1.47,-2.94 1.00333,-0.72332 2.23999,-1.08499 3.71,-1.085 1.49332,10e-6 2.93999,0.24501 4.34,0.735 l 0,-2.415 c -10e-6,-1.11998 -0.40835,-1.84332 -1.225,-2.17 -0.63001,-0.23332 -1.50501,-0.34998 -2.625,-0.35 -1.09668,2e-5 -2.11167,0.18668 -3.045,0.56 l 0,2.205 c -1e-5,0.23335 -0.0933,0.43168 -0.28,0.595 -0.18667,0.14001 -0.40834,0.21001 -0.665,0.21 -0.25667,10e-6 -0.47834,-0.07 -0.665,-0.21 -0.18667,-0.16332 -0.28,-0.36165 -0.28,-0.595 l 0,-2.66 c 0,-0.30332 0.15166,-0.53665 0.455,-0.7 1.14333,-0.67665 2.65999,-1.01498 4.55,-1.015 1.88999,2e-5 3.30165,0.31502 4.235,0.945 0.93332,0.60668 1.39998,1.66835 1.4,3.185 l 0,7 c -2e-5,0.44334 0.31498,0.66501 0.945,0.665"
           style="font-size:35px;font-weight:bold;text-align:start;word-spacing:40.52998734px;text-anchor:start;fill:#515151;marker:none;font-family:Flamenco;-inkscape-font-specification:Flamenco Bold"
           id="path3110" />
        <path
           d="m 632.55985,521.11995 c 0.18666,-0.11666 0.39666,-0.15166 0.63,-0.105 0.25666,0.0467 0.43166,0.15167 0.525,0.315 0.0933,0.14001 0.13999,0.26834 0.14,0.385 -1e-5,0.35001 -0.12834,0.60667 -0.385,0.77 -1.40001,0.81667 -2.90501,1.225 -4.515,1.225 -1.61,0 -2.765,-0.32666 -3.465,-0.98 -0.7,-0.67666 -1.05,-1.78499 -1.05,-3.325 l 0,-7.49 -1.96,0 c -0.23333,2e-5 -0.43166,-0.07 -0.595,-0.21 -0.14,-0.16332 -0.21,-0.36165 -0.21,-0.595 0,-0.23332 0.07,-0.43165 0.21,-0.595 0.16334,-0.16332 0.36167,-0.24498 0.595,-0.245 l 1.96,0 0,-5.005 c 0,-0.23331 0.0933,-0.41998 0.28,-0.56 0.18667,-0.16331 0.40833,-0.24498 0.665,-0.245 0.25667,2e-5 0.47833,0.0817 0.665,0.245 0.18666,0.14002 0.28,0.32669 0.28,0.56 l 0,5.005 5.88,0 c 0.23333,2e-5 0.41999,0.0817 0.56,0.245 0.16332,0.16335 0.24499,0.36168 0.245,0.595 -10e-6,0.23335 -0.0817,0.43168 -0.245,0.595 -0.14001,0.14002 -0.32667,0.21002 -0.56,0.21 l -5.88,0 0,7.49 c 0,0.98001 0.19833,1.68001 0.595,2.1 0.42,0.39667 1.17833,0.59501 2.275,0.595 1.11999,10e-6 2.23999,-0.32666 3.36,-0.98"
           style="font-size:35px;font-weight:bold;text-align:start;word-spacing:40.52998734px;text-anchor:start;fill:#515151;marker:none;font-family:Flamenco;-inkscape-font-specification:Flamenco Bold"
           id="path3112" />
        <path
           d="m 642.39157,522.09995 c 1.42333,10e-6 2.57832,-0.48999 3.465,-1.47 0.90999,-0.97999 1.36499,-2.23999 1.365,-3.78 -1e-5,-1.56332 -0.45501,-2.83499 -1.365,-3.815 -0.88668,-1.00332 -2.04167,-1.50498 -3.465,-1.505 -1.42334,2e-5 -2.59,0.50168 -3.5,1.505 -0.88667,0.98001 -1.33,2.25168 -1.33,3.815 0,1.54001 0.44333,2.80001 1.33,3.78 0.91,0.98001 2.07666,1.47001 3.5,1.47 m -4.865,-0.315 c -1.23667,-1.30666 -1.855,-2.96332 -1.855,-4.97 0,-2.00665 0.63,-3.65165 1.89,-4.935 1.26,-1.30665 2.87,-1.95998 4.83,-1.96 1.95999,2e-5 3.55832,0.65335 4.795,1.96 1.25999,1.28335 1.88999,2.94001 1.89,4.97 -10e-6,2.00668 -0.63001,3.65167 -1.89,4.935 -1.23668,1.28334 -2.84667,1.925 -4.83,1.925 -1.96,0 -3.57,-0.64166 -4.83,-1.925"
           style="font-size:35px;font-weight:bold;text-align:start;word-spacing:40.52998734px;text-anchor:start;fill:#515151;marker:none;font-family:Flamenco;-inkscape-font-specification:Flamenco Bold"
           id="path3114" />
        <path
           d="m 651.5211,510.26995 1.785,0 c 1.47,2e-5 2.22833,0.79335 2.275,2.38 1.26,-1.81998 2.75333,-2.72998 4.48,-2.73 0.97999,2e-5 1.80833,0.18668 2.485,0.56 0.32666,0.18668 0.48999,0.43168 0.49,0.735 l 0,2.94 c -1e-5,0.23335 -0.0933,0.43168 -0.28,0.595 -0.18668,0.14001 -0.40834,0.21001 -0.665,0.21 -0.25667,10e-6 -0.47834,-0.07 -0.665,-0.21 -0.18667,-0.16332 -0.28001,-0.36165 -0.28,-0.595 l 0,-2.45 c -0.30334,-0.11665 -0.75834,-0.17498 -1.365,-0.175 -0.60667,2e-5 -1.295,0.29168 -2.065,0.875 -0.77,0.56002 -1.435,1.40001 -1.995,2.52 l 0,7.98 c 0,0.23334 -0.0933,0.42 -0.28,0.56 -0.18667,0.16334 -0.40833,0.245 -0.665,0.245 -0.25667,0 -0.47833,-0.0817 -0.665,-0.245 -0.18667,-0.14 -0.28,-0.32666 -0.28,-0.56 l 0,-10.325 c 0,-0.44332 -0.23333,-0.66498 -0.7,-0.665 l -1.61,0 c -0.23333,2e-5 -0.43166,-0.07 -0.595,-0.21 -0.14,-0.16332 -0.21,-0.36165 -0.21,-0.595 0,-0.23332 0.07,-0.43165 0.21,-0.595 0.16334,-0.16332 0.36167,-0.24498 0.595,-0.245"
           style="font-size:35px;font-weight:bold;text-align:start;word-spacing:40.52998734px;text-anchor:start;fill:#515151;marker:none;font-family:Flamenco;-inkscape-font-specification:Flamenco Bold"
           id="path3116" />
        <path
           d="m 663.34946,529.65995 1.12,0.105 c 1.14333,0 2.07667,-0.47833 2.8,-1.435 0.56,-0.72333 1.17833,-1.785 1.855,-3.185 l 1.19,-2.45 -5.705,-11.55 c -0.0933,-0.20998 -0.0933,-0.41998 0,-0.63 0.11667,-0.20998 0.28,-0.36165 0.49,-0.455 0.23333,-0.11665 0.455,-0.17498 0.665,-0.175 0.23333,2e-5 0.43167,0.17502 0.595,0.525 l 4.935,10.36 4.935,-10.36 c 0.16332,-0.34998 0.34999,-0.52498 0.56,-0.525 0.55999,2e-5 0.94499,0.21002 1.155,0.63 0.0467,0.11668 0.07,0.23335 0.07,0.35 -10e-6,0.0933 -0.0233,0.18668 -0.07,0.28 l -7.14,14.7 c -0.44334,0.93333 -0.805,1.62167 -1.085,2.065 -0.25667,0.46667 -0.64167,1.02667 -1.155,1.68 -1.00333,1.19 -2.38,1.785 -4.13,1.785 -0.49,0 -0.86333,-0.035 -1.12,-0.105 -0.51333,-0.11667 -0.735,-0.42 -0.665,-0.91 0.07,-0.46667 0.30334,-0.7 0.7,-0.7"
           style="font-size:35px;font-weight:bold;text-align:start;word-spacing:40.52998734px;text-anchor:start;fill:#515151;marker:none;font-family:Flamenco;-inkscape-font-specification:Flamenco Bold"
           id="path3118" />
      </g>
      <path
         inkscape:connector-curvature="0"
         id="path3563"
         d="m 169.34839,492.19619 504.06608,0"
         style="color:#000000;fill:none;stroke:#515151;stroke-width:3;stroke-linecap:square;stroke-linejoin:miter;stroke-miterlimit:4;stroke-opacity:1;stroke-dasharray:none;stroke-dashoffset:0;marker:none;visibility:visible;display:inline;overflow:visible;enable-background:accumulate" />
      <path
         transform="translate(1.0502691,10.349626)"
         style="fill:#515151;fill-opacity:1;fill-rule:evenodd;stroke:none"
         d="m 334.61302,506.28183 c 0,2.78946 -2.2613,5.05076 -5.05076,5.05076 -2.78946,0 -5.05077,-2.2613 -5.05077,-5.05076 0,-2.78946 2.26131,-5.05076 5.05077,-5.05076 2.78946,0 5.05076,2.2613 5.05076,5.05076 z"
         id="path3565" />
      <path
         transform="translate(172.19009,10.349626)"
         style="fill:#515151;fill-opacity:1;fill-rule:evenodd;stroke:none"
         d="m 334.61302,506.28183 c 0,2.78946 -2.2613,5.05076 -5.05076,5.05076 -2.78946,0 -5.05077,-2.2613 -5.05077,-5.05076 0,-2.78946 2.26131,-5.05076 5.05077,-5.05076 2.78946,0 5.05076,2.2613 5.05076,5.05076 z"
         id="path3567" />
    </g>
  </g>
</svg>
