<?xml version="1.0" encoding="UTF-8" standalone="no"?>
<!-- Created with Inkscape (http://www.inkscape.org/) -->

<svg
   xmlns:dc="http://purl.org/dc/elements/1.1/"
   xmlns:cc="http://creativecommons.org/ns#"
   xmlns:rdf="http://www.w3.org/1999/02/22-rdf-syntax-ns#"
   xmlns:svg="http://www.w3.org/2000/svg"
   xmlns="http://www.w3.org/2000/svg"
   xmlns:sodipodi="http://sodipodi.sourceforge.net/DTD/sodipodi-0.dtd"
   xmlns:inkscape="http://www.inkscape.org/namespaces/inkscape"
   width="332.19647"
   height="332.25735"
   id="svg2"
   version="1.1"
   inkscape:version="0.92.2 5c3e80d, 2017-08-06"
   sodipodi:docname="norlab_logo_stamp_dark.svg"
   inkscape:export-filename="/home/frank/research/drawings/norlab_logo_light_stamp.png"
   inkscape:export-xdpi="90"
   inkscape:export-ydpi="90">
  <defs
     id="defs4" />
  <sodipodi:namedview
     id="base"
     pagecolor="#ffffff"
     bordercolor="#666666"
     borderopacity="1.0"
     inkscape:pageopacity="0"
     inkscape:pageshadow="2"
     inkscape:zoom="2.8"
     inkscape:cx="164.17675"
     inkscape:cy="61.122879"
     inkscape:document-units="px"
     inkscape:current-layer="layer1"
     showgrid="false"
     inkscape:window-width="2815"
     inkscape:window-height="1596"
     inkscape:window-x="65"
     inkscape:window-y="24"
     inkscape:window-maximized="1"
     fit-margin-top="0"
     fit-margin-left="0"
     fit-margin-right="0"
     fit-margin-bottom="0"
     showguides="true"
     inkscape:guide-bbox="true"
     inkscape:snap-to-guides="true"
     inkscape:snap-center="true"
     borderlayer="true" />
  <metadata
     id="metadata7">
    <rdf:RDF>
      <cc:Work
         rdf:about="">
        <dc:format>image/svg+xml</dc:format>
        <dc:type
           rdf:resource="http://purl.org/dc/dcmitype/StillImage" />
        <dc:title></dc:title>
      </cc:Work>
    </rdf:RDF>
  </metadata>
  <g
     inkscape:groupmode="layer"
     id="layer3"
     inkscape:label="background"
     style="display:inline"
     transform="translate(-204.30587,-77.244043)" />
  <g
     inkscape:label="Layer 1"
     inkscape:groupmode="layer"
     id="layer1"
     transform="translate(-204.30587,-77.244043)">
    <g
       id="g3903"
       transform="rotate(60,284.2832,340.73361)">
      <path
         style="fill:#515151;fill-opacity:1;fill-rule:evenodd;stroke:none"
         d="M 183.40625,33.875 176.125,56.28125 c -7.74328,1.282943 -15.42065,3.199171 -23,5.78125 L 134.90625,46.375 c -7.60033,4.078743 -25.43204,14.043135 -32.3125,18.0625 l 4.875,23.0625 C 101.27516,92.581324 95.603503,98.105679 90.4375,104 l -23.625,-4.53125 c -4.542712,7.33247 -15.019777,24.92265 -18.96875,31.84375 l 15.75,17.53125 c -2.780831,7.4236 -4.95513,15.07264 -6.5,22.84375 l -22.71875,7.875 c -0.267867,8.62146 -0.509383,29.06291 -0.46875,37.03125 l 22.375,7.3125 c 1.284549,7.74242 3.200452,15.42123 5.78125,23 L 46.375,265.125 c 4.078761,7.60034 14.043126,25.43204 18.0625,32.3125 l 23.03125,-4.90625 c 5.088222,6.202 10.627939,11.89093 16.53125,17.0625 l -4.5,23.59375 c 7.33248,4.54271 24.92263,15.01978 31.84375,18.96875 L 148.875,336.375 c 7.40792,2.77371 14.99658,4.95548 22.75,6.5 l 7.9375,22.71875 c 8.62148,0.26786 29.0629,0.5719 37.03125,0.53125 l 7.28125,-22.40625 c 7.74161,-1.28239 15.42106,-3.20001 23,-5.78125 l 18.21875,15.6875 c 7.60035,-4.07875 25.43203,-14.04313 32.3125,-18.0625 l -4.875,-23.0625 c 6.18796,-5.07837 11.86931,-10.6099 17.03125,-16.5 l 23.625,4.53125 c 4.54272,-7.33248 15.01976,-24.92264 18.96875,-31.84375 L 336.375,251.125 c 2.76695,-7.39533 4.9261,-15.0091 6.46875,-22.75 l 22.78125,-7.9375 c 0.26788,-8.62146 0.50938,-29.06291 0.46875,-37.03125 l -22.375,-7.3125 c -1.28327,-7.74097 -3.19547,-15.42272 -5.78125,-23 L 353.625,134.875 c -4.07874,-7.60032 -14.04313,-25.43204 -18.0625,-32.3125 L 312.5,107.46875 C 307.41837,101.2753 301.89449,95.603403 296,90.4375 l 4.5,-23.625 C 293.16755,62.2698 275.57735,51.792732 268.65625,47.84375 L 251.125,63.625 c -7.40879,-2.77526 -14.9949,-4.955728 -22.75,-6.5 L 220.4375,34.40625 C 211.81604,34.138391 191.37458,33.834358 183.40625,33.875 Z M 199.625,61.15625 c 45.02223,-0.07475 88.93169,21.795154 115.46875,61.21875 7.237,1.58482 13.15308,2.19857 16.40625,1.09375 l 1.96875,3.375 c -2.66932,2.34343 -5.2341,7.56527 -7.75,14.25 30.34465,64.58193 6.63639,142.79949 -56.28125,179.125 -66.37306,38.32051 -151.367,15.56056 -189.6875,-50.8125 -38.320505,-66.37306 -15.529311,-151.3045 50.84375,-189.625 21.77866,-12.573916 45.55929,-18.58603 69.03125,-18.625 z m 0.0312,5 c -22.6231,0.0433 -45.55171,5.806914 -66.5625,17.9375 -64.032879,36.9694 -85.9694,118.77962 -49,182.8125 36.9694,64.03289 118.81087,85.9694 182.84375,49 59.18239,-34.16897 82.33046,-106.62919 56.3125,-167.96875 -2.13794,6.19783 -4.39745,13.09699 -7.1875,20 -7.2466,17.92986 -18.1239,36.11369 -39.25,41.15625 l -0.0937,0.0312 h -0.0937 c -7.39892,1.05032 -13.28748,0.74551 -18.125,-0.28125 1.34969,0.28707 2.75965,0.52614 4.28125,0.6875 l -16.125,9.3125 8.4375,4.875 28.625,-14.34375 5.375,-2.65625 5.375,10.71875 -5.375,2.6875 -21.53125,10.78125 9.1875,5.3125 20.46875,-8.96875 5.5,-2.40625 4.8125,11 -5.5313,2.4063 -12.34375,5.40625 17.6875,10.21875 5.4375,3.15625 -6.25,10.84375 -5.46875,-3.125 -17.6875,-10.21875 1.5,13.40625 0.65625,5.96875 -11.9375,1.34375 -0.65625,-5.96875 -2.46875,-22.1875 -9.15625,-5.3125 1.40625,24.03125 0.34375,6 -11.96875,0.6875 -0.34375,-6 -1.90625,-31.90625 -8.4375,-4.875 -0.0625,28.9375 c 0.1035,2.20156 -1.1141,4.41276 -3.03125,5.5 -1.91716,1.08725 -4.44497,1.00013 -6.28125,-0.21875 -0.0209,-0.0102 -0.0417,-0.0208 -0.0625,-0.0312 l -25.0625,-14.4375 v 9.75 l 26.71875,17.625 5,3.3125 -6.625,10 -5,-3.3125 -20.09375,-13.25 v 10.5625 l 18,13.28125 4.8125,3.5625 -7.125,9.6875 -4.8125,-3.5625 -10.875,-8.03125 v 20.46875 l 0.0312,6.25 h -12.5625 l -0.0312,-6.25 v -20.4375 l -10.84375,8 -4.84375,3.5625 -7.125,-9.6875 4.84375,-3.53125 17.96875,-13.25 v -10.59375 l -20.09375,13.25 -5,3.28125 -6.59375,-10 5,-3.34375 26.6875,-17.5625 v -9.75 l -25.0625,14.40625 c -1.18931,0.71195 -2.63022,0.99332 -4,0.78125 -2.96903,-0.37064 -5.3974,-3.26156 -5.25,-6.25 L 159,229.5 l -8.46875,4.875 -1.875,31.9375 -0.375,5.96875 -11.96875,-0.6875 0.375,-6 1.40625,-24.03125 -9.15625,5.28125 -2.5,22.21875 -0.65625,5.96875 -11.90625,-1.34375 0.625,-5.9375 1.5,-13.4375 -17.65625,10.21875 -5.4375,3.15625 -6.28125,-10.90625 5.4375,-3.125 17.6875,-10.21875 -12.40625,-5.40625 -5.4375,-2.40625 4.78125,-11 5.5,2.40625 20.46875,8.96875 9.15625,-5.3125 -21.5,-10.78125 -5.375,-2.65625 5.34375,-10.75 5.40625,2.6875 28.59375,14.3125 8.46875,-4.875 -25.0625,-14.5 c -1.87734,-0.96773 -3.1679,-2.98326 -3.25,-5.09375 -0.0821,-2.11049 1.0473,-4.23303 2.84375,-5.34375 0.0413,-0.0317 0.0829,-0.0631 0.125,-0.0937 0.0516,-0.032 0.10375,-0.0633 0.15625,-0.0937 0.072,-0.0432 0.14495,-0.0849 0.21875,-0.125 l 25.0625,-14.5 -8.4375,-4.875 -28.625,14.3125 -5.34375,2.6875 -5.34375,-10.71875 5.3125,-2.6875 21.5625,-10.78125 -9.15625,-5.28125 -20.5,8.9375 -5.53125,2.40625 -4.78125,-11 5.5,-2.40625 12.375,-5.40625 -17.71875,-10.21875 -5.40625,-3.125 6.28125,-10.875 5.40625,3.125 17.71875,10.25 -1.53125,-13.4375 -0.65625,-5.96875 11.9375,-1.34375 0.65625,5.96875 2.5,22.21875 9.15625,5.3125 -1.40625,-24.0625 -0.34375,-5.96875 11.9375,-0.71875 0.375,6 1.875,31.90625 8.46875,4.875 0.0312,-28.9375 c -0.0327,-3.13127 2.77519,-6.0134 5.90625,-6.0625 1.20265,-0.0859 2.42935,0.20142 3.46875,0.8125 l 25.0625,14.4375 v -9.78125 l -26.6875,-17.59375 -5,-3.3125 6.59375,-10 5,3.3125 20.09375,13.25 v -10.625 l -17.96875,-13.25 -4.84375,-3.5625 7.125,-9.65625 4.8125,3.5625 10.875,8.03125 V 78.1876 71.90635 h 12.5625 v 6.28125 20.4375 l 10.875,-8.03125 4.84375,-3.53125 7.09375,9.625 -4.8125,3.59375 -18,13.25 v 10.5625 l 20.09375,-13.25 5,-3.28125 6.625,10.03125 -5,3.28125 -26.71875,17.625 v 9.75 l 14.4375,-8.34375 c 1.53781,-4.23412 4.02693,-8.86672 8,-13.9375 l 0.0625,-0.0625 0.0625,-0.0937 c 7.49887,-7.923 16.88156,-11.61639 26.75,-12.78125 9.86844,-1.16486 20.2813,0.13889 30.25,2.1875 7.76117,1.59496 15.22346,3.65205 21.96875,5.375 C 281.85724,85.461215 241.27351,66.076597 199.65625,66.15625 Z m 111.53125,59.40625 c -7.95755,-1.90718 -16.94542,-4.49412 -26.25,-6.40625 -7.3186,-1.504 -14.81181,-2.58361 -21.96875,-2.5625 -2.38565,0.007 -4.73369,0.13505 -7.03125,0.40625 -9.15869,1.08108 -17.47086,4.40613 -24.25,11.53125 -11.59611,14.84392 -9.62395,23.99298 -8.8125,33 0.40648,4.51199 0.57805,9.1028 -1.6875,13.75 -1.20751,2.4769 -3.15073,4.90488 -5.9375,7.375 L 228.53125,175 228.5,139.15625 h 12 l 0.0312,28.90625 8.4375,-4.875 1.90625,-31.90625 0.34375,-6 11.96875,0.71875 -0.34375,6 -1.4375,24.03125 9.15625,-5.3125 2.5,-22.21875 0.6875,-5.9375 11.90625,1.3125 -0.65625,5.96875 -1.5,13.40625 17.71875,-10.21875 5.4375,-3.125 6.28125,10.875 -5.4375,3.15625 -17.46875,10.09375 11.9375,5.21875 5.5,2.40625 -4.78125,11 -5.53125,-2.4375 -20.03125,-8.75 -9.21875,5.3125 21.15625,10.59375 5.34375,2.6875 -5.375,10.71875 -5.375,-2.6875 -28.15625,-14.125 -8.5,4.90625 24.6875,14.28125 -6.03125,10.375 -30.65625,-17.75 -14.78125,8.5625 c 3.87309,-1.43944 7.18253,-2.03856 10.125,-1.9375 5.11178,0.17555 8.97619,2.3614 12.65625,4.75 7.34629,4.7682 14.28553,10.65759 32.96875,8.03125 19.25303,-4.64376 29.33888,-21.26359 36.40625,-38.75 3.32859,-8.23576 5.91626,-16.55785 8.5,-23.8125 1.53528,-4.98402 6.53125,-14.59375 6.53125,-14.59375 M 219.2187,144.625 c -0.1457,0.65268 -0.26874,1.30488 -0.375,1.9375 0.1053,-0.63761 0.22932,-1.27936 0.375,-1.9375 z m -48.0625,4.53125 -0.0312,25.78125 22.46875,12.96875 v -25.8125 z m 47.1875,5.90625 -12.1875,7.03125 v 22.375 c 6.51413,-4.07603 9.82581,-7.63152 11.4375,-10.9375 1.78553,-3.66257 1.70603,-7.25682 1.3125,-11.625 -0.19022,-2.11147 -0.46249,-4.39217 -0.5625,-6.84375 z m -53.53125,30.75 -22.40625,12.96875 22.3125,12.9375 22.46875,-13 z m 65.40625,10.5625 c -3.58942,-0.12327 -8.20767,0.99208 -14.78125,4.4375 l 19.21875,11.09375 12.65625,-7.3125 c 0.31326,0.17556 0.64395,0.32779 0.96875,0.5 -2.85275,-1.51117 -5.25172,-3.15476 -7.46875,-4.59375 -3.54725,-2.30239 -6.53087,-3.98547 -10.59375,-4.125 z m 18.0625,8.71875 c 0.57708,0.30596 1.16429,0.61544 1.78125,0.90625 -0.60912,-0.28776 -1.2107,-0.60402 -1.78125,-0.90625 z M 250.0625,206 c 0.60256,0.28402 1.23026,0.54846 1.875,0.8125 -0.65206,-0.26749 -1.26588,-0.52474 -1.875,-0.8125 z m -56.71875,3.65625 -22.375,12.9375 L 171,248.5 193.34375,235.65625 Z m 12.5625,0.15625 v 25.8125 l 22.46875,12.96875 0.0312,-25.78125 z"
         transform="rotate(-60,236.64302,171.47296)"
         id="path3047"
         inkscape:connector-curvature="0"
         sodipodi:nodetypes="cccccccccccccccccccccccccccccccccccccccccccccccccsccccssssssssccccccccccccccccccccccccccccccccccccccsccccccccccccccccccccccccccccccccccccccccccccccccccccccccccccccccccccccccccccccccccccccccccccccccccccccccccccccccccccccccccccccccccccccccccsscsscsccssccccccccccccccccccccccccccccccccccccccsscscccccccccccccssccscccsccccssccccccccccccccccc" />
    </g>
  </g>
</svg>
