<?xml version="1.0" encoding="UTF-8" standalone="no"?>
<!-- Created with Inkscape (http://www.inkscape.org/) -->

<svg
   width="332.19647"
   height="332.25735"
   id="svg2"
   version="1.1"
   inkscape:version="1.3.2 (091e20e, 2023-11-25)"
   sodipodi:docname="sticker_dark.svg"
   inkscape:export-filename="sticker_dark.jpg"
   inkscape:export-xdpi="360"
   inkscape:export-ydpi="360"
   xml:space="preserve"
   xmlns:inkscape="http://www.inkscape.org/namespaces/inkscape"
   xmlns:sodipodi="http://sodipodi.sourceforge.net/DTD/sodipodi-0.dtd"
   xmlns="http://www.w3.org/2000/svg"
   xmlns:svg="http://www.w3.org/2000/svg"
   xmlns:rdf="http://www.w3.org/1999/02/22-rdf-syntax-ns#"
   xmlns:cc="http://creativecommons.org/ns#"
   xmlns:dc="http://purl.org/dc/elements/1.1/"><defs
     id="defs4" /><sodipodi:namedview
     id="base"
     pagecolor="#ffffff"
     bordercolor="#666666"
     borderopacity="1.0"
     inkscape:pageopacity="0"
     inkscape:pageshadow="2"
     inkscape:zoom="1.1982407"
     inkscape:cx="122.26258"
     inkscape:cy="131.44271"
     inkscape:document-units="px"
     inkscape:current-layer="layer1"
     showgrid="false"
     inkscape:window-width="1800"
     inkscape:window-height="1026"
     inkscape:window-x="0"
     inkscape:window-y="44"
     inkscape:window-maximized="1"
     fit-margin-top="0"
     fit-margin-left="0"
     fit-margin-right="0"
     fit-margin-bottom="0"
     showguides="true"
     inkscape:guide-bbox="true"
     inkscape:snap-to-guides="true"
     inkscape:snap-center="true"
     borderlayer="true"
     inkscape:showpageshadow="2"
     inkscape:pagecheckerboard="0"
     inkscape:deskcolor="#d1d1d1"><inkscape:grid
       id="grid2"
       units="px"
       originx="0"
       originy="0"
       spacingx="1"
       spacingy="1"
       empcolor="#0099e5"
       empopacity="0.30196078"
       color="#0099e5"
       opacity="0.14901961"
       empspacing="5"
       dotted="false"
       gridanglex="30"
       gridanglez="30"
       visible="false" /></sodipodi:namedview><metadata
     id="metadata7"><rdf:RDF><cc:Work
         rdf:about=""><dc:format>image/svg+xml</dc:format><dc:type
           rdf:resource="http://purl.org/dc/dcmitype/StillImage" /></cc:Work></rdf:RDF></metadata><g
     inkscape:groupmode="layer"
     id="layer3"
     inkscape:label="background"
     style="display:inline"
     transform="translate(-204.30587,-77.244043)" /><g
     inkscape:groupmode="layer"
     id="layer5"
     inkscape:label="Layer 3"><path
       style="display:inline;fill:#515151;fill-opacity:1;fill-rule:evenodd;stroke:none;stroke-width:1;opacity:1"
       d="m 81.584558,144.59058 16.724792,18.57629 c -2.92887,7.79529 -5.240916,15.86596 -6.88916,24.19978 l -24.07875,8.41786 c -0.284201,9.14705 -0.588101,30.81717 -0.544981,39.27129 l 23.776448,7.75499 c 1.383242,8.38636 3.450423,16.52819 6.125793,24.40166 l -16.696063,19.30343 c 4.32741,8.06369 14.931773,27.02155 19.196163,34.32147 l 24.4632,-5.17143 c 5.34579,6.49317 11.22048,12.54865 17.54122,18.09055 l -4.81617,25.05206 c 7.77949,4.81965 26.43344,15.88539 33.77648,20.07512 l 18.58844,-16.67951 c 7.79535,2.92695 15.86717,5.24006 24.19978,6.88916 l 8.41784,24.07876 c 9.14709,0.28418 30.81718,0.58811 39.2713,0.54498 l 7.70971,-23.7643 c 8.39775,-1.38513 16.56359,-3.45727 24.44695,-6.13794 l 19.2913,16.65077 c 8.06369,-4.32743 27.02153,-14.93174 34.32146,-19.19616 l -5.20015,-24.47979 c 6.47833,-5.33516 12.50864,-11.1504 18.04083,-17.45508 l 25.0852,4.75875 c 4.81967,-7.77951 15.94283,-26.40027 20.13255,-33.74334 l -16.72478,-18.57629 c 2.92849,-7.79346 5.24036,-15.86678 6.88915,-24.19978 l 24.07875,-8.41785 c 0.28421,-9.14708 0.5881,-30.81716 0.54499,-39.2713 l -23.77646,-7.75498 c -1.38352,-8.37963 -3.45215,-16.53417 -6.12578,-24.40166 l 16.69607,-19.30343 c -4.32743,-8.06372 -14.93178,-27.02153 -19.19619,-34.32148 l -24.50849,5.18357 c -5.32718,-6.46543 -11.17748,-12.48827 -17.47166,-18.01211 l 4.79191,-25.142625 C 341.88676,71.312347 323.2328,60.24662 315.88976,56.056887 L 297.30133,72.73639 c -7.79334,-2.927352 -15.86589,-5.245413 -24.19978,-6.889154 l -8.41786,-24.078757 c -9.14704,-0.284198 -30.81716,-0.588106 -39.27128,-0.544982 l -7.72628,23.793026 c -8.3864,1.3836 -16.52819,3.450224 -24.40166,6.125794 L 173.96445,54.474966 c -8.06366,4.327398 -27.02153,14.931771 -34.32146,19.196168 l 5.20014,24.479785 c -6.4802,5.335131 -12.50796,11.148721 -18.04082,17.455081 l -25.08521,-4.75875 c -4.81965,7.77949 -15.942825,26.40029 -20.132542,33.74333 z m 33.670382,-0.42994 c 23.81482,-41.40709 67.20259,-70.150485 117.50333,-73.619808 5.29526,-5.808801 8.99757,-10.919045 9.70818,-14.494218 l 4.14542,-0.01856 c 0.73717,3.695781 4.17454,8.822453 8.98199,14.680251 75.43663,6.378231 134.72788,69.654965 134.72787,146.735165 10e-6,81.31342 -66.00015,147.33401 -147.31357,147.33401 -81.31341,0 -147.26001,-65.9957 -147.26,-147.30913 0,-26.68096 7.09112,-51.72046 19.50678,-73.30771 z m 4.61066,2.62375 c -11.96136,20.80958 -18.82885,44.93441 -18.82885,70.67466 0,78.44648 63.53214,142.00114 141.97861,142.00114 78.44649,10e-6 142.01772,-63.56086 142.01772,-142.00733 0,-72.50416 -54.29845,-132.212 -124.46068,-140.845671 4.56054,5.252227 9.70103,10.988201 14.56359,17.213688 12.63018,16.169813 23.56767,35.810313 16.99386,57.896443 l -0.021,0.10271 -0.0497,0.086 c -2.95994,7.35548 -6.36379,12.60432 -9.87342,16.50446 0.97976,-1.08783 1.94738,-2.25652 2.90282,-3.569 l 0.002,19.75614 8.95522,-5.16647 2.00568,-33.9104 0.41073,-6.34776 12.69997,0.74743 -0.382,6.36435 -1.5159,25.50265 9.75506,-5.62349 2.61762,-23.56492 0.70673,-6.32999 12.65999,1.41347 -0.72328,6.35879 -1.58076,14.20963 18.77212,-10.83081 5.78454,-3.32175 6.64797,11.49506 -5.77241,3.36705 -18.77212,10.8308 13.11369,5.73355 5.83235,2.56335 -5.09796,11.68127 -5.83236,-2.56333 -21.696,-9.50174 -9.73849,5.59478 22.82646,11.45606 5.69529,2.86705 -5.71752,11.36186 -5.69529,-2.86704 -30.32742,-15.1742 -8.9552,5.16646 26.55527,15.40826 c 2.07775,1.07279 3.46353,3.36455 3.44549,5.70283 -0.0181,2.33831 -1.43904,4.61469 -3.53308,5.65532 -0.0205,0.0138 -0.0413,0.0273 -0.0619,0.0408 l -26.56072,15.36915 8.95853,5.1722 30.36808,-15.20004 5.69601,-2.83688 5.67378,11.39201 -5.69601,2.8369 -22.83379,11.4337 9.70507,5.60323 21.75179,-9.49335 5.82625,-2.53199 5.1214,11.68566 -5.82624,2.532 -13.14829,5.73175 18.80715,10.85831 5.75919,3.28685 -6.66418,11.54271 -5.7592,-3.28685 -18.77843,-10.84173 1.59815,14.20734 0.70378,6.34039 -12.68078,1.40756 -0.67506,-6.32382 -2.6423,-23.53898 -9.73376,-5.61979 1.51501,25.49147 0.36248,6.33477 -12.6861,0.75366 -0.41991,-6.36791 -1.97956,-33.83768 -8.95853,-5.1722 -0.0585,30.67025 c 0.0233,1.47044 -0.48261,2.94364 -1.40409,4.08973 -1.91557,2.53139 -5.86003,3.22905 -8.52768,1.5083 l -26.60505,-15.32215 -0.0133,10.36737 28.35024,18.66509 5.2853,3.51087 -6.9809,10.63246 -5.31401,-3.52746 -21.33447,-14.04025 -0.004,11.21458 19.08889,14.08371 5.13608,3.7693 -7.55072,10.2269 -5.12396,-3.72401 -11.55096,-8.50659 0.023,21.64383 0.0155,6.67044 -13.35301,-0.0142 0.0132,-6.65385 -0.006,-21.67255 -11.54868,8.53122 -5.09541,3.71962 -7.57069,-10.22842 5.12858,-3.77705 19.09901,-14.04939 -0.024,-11.23115 -21.31143,14.03542 -5.29197,3.52958 -7.04257,-10.61264 5.33725,-3.54171 28.31913,-18.68006 0.0133,-10.36738 -26.61816,15.336 c -1.88505,1.21157 -4.42159,1.32816 -6.40431,0.28402 -1.98271,-1.04414 -3.33382,-3.20783 -3.40139,-5.44767 -0.007,-0.0547 -0.014,-0.10965 -0.0198,-0.16455 -0.002,-0.0644 -0.003,-0.12891 -0.003,-0.19329 -10e-4,-0.089 -10e-4,-0.17822 0.001,-0.2673 l -0.0277,-30.71998 -8.95521,5.16647 -2.03441,33.89383 -0.36543,6.33562 -12.6834,-0.77614 0.34886,-6.30692 1.53246,-25.53139 -9.70976,5.61137 -2.66291,23.57705 -0.72331,6.35871 -12.64342,-1.44219 0.70673,-6.32999 1.59734,-14.23836 -18.7887,10.85952 -5.73924,3.30962 -6.6601,-11.54034 5.73923,-3.30963 18.81743,-10.84295 -13.159,-5.7214 -5.83233,-2.56334 5.09796,-11.68129 5.83235,2.56335 21.74129,9.4896 9.73848,-5.59478 -22.85516,-11.47265 -5.66658,-2.85046 5.67224,-11.34974 5.71186,2.83834 30.31084,15.20292 8.97178,-5.19518 -26.57187,-15.3795 c -2.89444,-1.63105 -4.05306,-5.73992 -2.4372,-8.64285 0.55905,-1.15059 1.4738,-2.12529 2.58666,-2.75614 l 26.56071,-15.36915 -8.98724,-5.18879 -30.32278,15.1879 -5.69601,2.8369 -5.69036,-11.36333 5.69602,-2.83688 22.83378,-11.4337 -9.76249,-5.63637 -21.70651,9.4812 -5.84282,2.5607 -5.0927,-11.66908 5.82624,-2.532 13.1483,-5.73175 -18.77843,-10.84174 -5.77137,-3.3321 6.66419,-11.5427 5.77136,3.33209 18.77843,10.84173 -1.6103,-14.25262 -0.67506,-6.32381 12.60678,-1.41201 0.74907,6.32826 2.62571,23.56769 9.70507,5.60322 -1.51502,-25.49148 -0.36248,-6.33475 12.73138,-0.7658 0.36248,6.33475 2.02042,33.89954 8.95852,5.1722 -0.007,-17.69169 c -3.07462,-3.65912 -6.01073,-8.40369 -8.56223,-14.74419 l -0.0243,-0.0906 -0.053,-0.10713 c -3.30182,-11.09315 -1.71803,-21.67345 2.4467,-31.35874 4.16474,-9.68528 10.88649,-18.56124 18.05703,-26.633945 5.58265,-6.28504 11.43136,-12.050315 16.5927,-17.334044 -45.98317,5.096107 -85.32316,32.102149 -107.32719,70.383279 z M 233.61479,75.820941 c -5.9737,6.299851 -13.11854,13.185787 -19.81138,20.720686 -5.26429,5.926653 -10.23128,12.238863 -14.00852,18.826023 -1.25912,2.1957 -2.38705,4.42106 -3.35668,6.67599 -3.86521,8.98869 -5.21953,18.38998 -2.26902,28.39856 7.48739,18.52921 16.93996,21.57056 25.64627,25.60305 4.36134,2.02005 8.67049,4.29775 11.73861,8.84464 1.63528,2.42344 2.8353,5.49692 3.62659,9.36783 l 0.0107,-16.26467 -32.95063,-18.98577 6.36579,-11.02587 26.57626,15.30559 -0.003,-10.33867 -28.30495,-18.67721 -5.33059,-3.49874 7.00961,-10.61587 5.33059,3.49874 21.31789,14.06897 -0.024,-11.23117 -19.08889,-14.08371 -5.0908,-3.78143 7.52201,-10.243472 5.1361,3.769292 11.52223,8.49002 0.0106,-21.701253 0.0132,-6.653858 13.32429,-0.0023 0.0155,6.670429 0.007,21.405242 11.12774,-8.2 5.12857,-3.777041 7.57068,10.228421 -5.17386,3.78919 -18.66593,13.76344 -0.009,11.28858 20.9568,-13.81904 5.30409,-3.48429 6.9973,10.62479 -5.32069,3.513 -27.91476,18.37753 -0.001,10.41267 26.21822,-15.10748 6.33331,11.0454 -32.57171,18.7516 0.0262,18.12361 c 0.73202,-4.32229 1.93714,-7.68091 3.59093,-10.3309 2.87301,-4.6037 6.93142,-6.99484 11.07831,-9.10905 8.27821,-4.2205 17.37066,-7.4722 24.86865,-26.03199 5.9466,-20.15356 -3.97371,-38.2372 -16.2915,-54.007082 -5.80169,-7.427322 -12.0755,-14.219652 -17.37061,-20.442115 -3.76499,-4.054586 -9.94436,-13.742788 -9.94436,-13.742788 M 202.34203,170.43622 c 0.52241,0.48011 1.05639,0.93914 1.58129,1.37238 -0.52999,-0.435 -1.05386,-0.88939 -1.58129,-1.37238 z m 70.00386,5.99921 c 0.32748,-0.1947 0.64278,-0.41779 0.97331,-0.62487 z m 0.97335,-0.62487 c 0.58725,-0.36794 1.18311,-0.74331 1.7776,-1.1559 -0.58753,0.40702 -1.19725,0.79199 -1.7776,1.1559 z m 1.77762,-1.15595 c 0.58061,-0.40298 1.15658,-0.83944 1.74121,-1.29178 -0.5917,0.45723 -1.15368,0.88476 -1.74121,1.29178 z"
       id="path3047"
       inkscape:connector-curvature="0"
       sodipodi:nodetypes="cccccccccccccccccccccccccccccccccccccccccccccccccsccccssssssssccccccccccccccccccccccccccccccccccccccsccccccccccccccccccccccccccccccccccccccccccccccccccccccccccccccccccccccccccccccccccccccccccccccccccccccccccccccccccccccccccccccccccccccccccsscsscsccssccccccccccccccccccccccccccccccccccccccsscsccccccccccccccc"
       inkscape:label="path3047"
       transform="rotate(60,249.02557,125.17751)" /></g><g
     inkscape:label="Layer 1"
     inkscape:groupmode="layer"
     id="layer1"
     transform="translate(-204.30587,-77.244043)"
     style="display:inline"><circle
       style="display:inline;fill:#ffffff;fill-opacity:1;stroke:none;stroke-width:12.229;stroke-dasharray:none;stroke-opacity:1;opacity:0.6"
       id="path1"
       cx="370.40411"
       cy="243.37273"
       inkscape:label="path1"
       r="143.68275" /></g></svg>
