<?xml version="1.0" encoding="UTF-8" standalone="no"?>
<!-- Created with Inkscape (http://www.inkscape.org/) -->

<svg
   width="352.44901"
   height="352.51358"
   id="svg2"
   version="1.1"
   inkscape:version="1.3.2 (091e20e, 2023-11-25)"
   sodipodi:docname="sticker_dark.svg"
   inkscape:export-filename="sticker_dark.jpg"
   inkscape:export-xdpi="360"
   inkscape:export-ydpi="360"
   xml:space="preserve"
   xmlns:inkscape="http://www.inkscape.org/namespaces/inkscape"
   xmlns:sodipodi="http://sodipodi.sourceforge.net/DTD/sodipodi-0.dtd"
   xmlns="http://www.w3.org/2000/svg"
   xmlns:svg="http://www.w3.org/2000/svg"
   xmlns:rdf="http://www.w3.org/1999/02/22-rdf-syntax-ns#"
   xmlns:cc="http://creativecommons.org/ns#"
   xmlns:dc="http://purl.org/dc/elements/1.1/"><defs
     id="defs4" /><sodipodi:namedview
     id="base"
     pagecolor="#ffffff"
     bordercolor="#666666"
     borderopacity="1.0"
     inkscape:pageopacity="0"
     inkscape:pageshadow="2"
     inkscape:zoom="0.59912035"
     inkscape:cx="131.02543"
     inkscape:cy="342.16831"
     inkscape:document-units="px"
     inkscape:current-layer="layer1"
     showgrid="false"
     inkscape:window-width="960"
     inkscape:window-height="1075"
     inkscape:window-x="0"
     inkscape:window-y="226"
     inkscape:window-maximized="0"
     fit-margin-top="0"
     fit-margin-left="0"
     fit-margin-right="0"
     fit-margin-bottom="0"
     showguides="true"
     inkscape:guide-bbox="true"
     inkscape:snap-to-guides="true"
     inkscape:snap-center="true"
     borderlayer="true"
     inkscape:showpageshadow="2"
     inkscape:pagecheckerboard="0"
     inkscape:deskcolor="#d1d1d1"><inkscape:grid
       id="grid2"
       units="px"
       originx="0"
       originy="0"
       spacingx="1"
       spacingy="1"
       empcolor="#0099e5"
       empopacity="0.30196078"
       color="#0099e5"
       opacity="0.14901961"
       empspacing="5"
       dotted="false"
       gridanglex="30"
       gridanglez="30"
       visible="false" /></sodipodi:namedview><metadata
     id="metadata7"><rdf:RDF><cc:Work
         rdf:about=""><dc:format>image/svg+xml</dc:format><dc:type
           rdf:resource="http://purl.org/dc/dcmitype/StillImage" /></cc:Work></rdf:RDF></metadata><g
     inkscape:groupmode="layer"
     id="layer3"
     inkscape:label="background"
     style="display:inline"
     transform="translate(-204.30587,-77.244043)" /><g
     inkscape:groupmode="layer"
     id="layer5"
     inkscape:label="Layer 3"><path
       style="display:inline;opacity:1;fill:#515151;fill-opacity:1;fill-rule:evenodd;stroke:none;stroke-width:1"
       d="m 158.61912,0.0039959 -7.72514,23.7722401 c -8.21536,1.361169 -16.36078,3.394213 -24.40221,6.133702 L 107.16232,13.266059 c -8.063681,4.3274 -26.982505,14.899275 -34.282428,19.163678 l 5.172206,24.468503 c -6.57118,5.391102 -12.588621,11.252249 -18.069561,17.505922 l -25.065293,-4.8075 c -4.819655,7.779492 -15.935462,26.44207 -20.125183,33.785098 l 16.71019,18.60004 c -2.950355,7.87617 -5.25721,15.99154 -6.896266,24.23642 l -24.1038053,8.3551 c -0.2841943,9.14706 -0.5404314,30.83473 -0.4973234,39.28885 l 23.7390987,7.75831 c 1.362862,8.21444 3.39556,16.3614 6.133702,24.4022 L 13.23376,245.35212 c 4.327438,8.06371 14.899271,26.98252 19.163683,34.28244 l 24.435342,-5.20535 c 5.398433,6.5801 11.275879,12.61586 17.539087,18.10271 l -4.774339,25.03214 c 7.779509,4.81965 26.442031,15.93546 33.785097,20.12518 l 18.60004,-16.74336 c 7.85955,2.94282 15.91085,5.2576 24.13696,6.89628 l 8.4214,24.10379 c 9.14709,0.28421 30.83472,0.60677 39.28887,0.56363 l 7.72514,-23.77223 c 8.21358,-1.36058 16.36122,-3.3951 24.4022,-6.13371 l 19.32945,16.64389 c 8.06371,-4.32741 26.98249,-14.89927 34.28244,-19.16368 l -5.17222,-24.46851 c 6.56521,-5.38797 12.59294,-11.25673 18.06957,-17.50591 l 25.06529,4.80751 c 4.81967,-7.77953 15.93544,-26.44207 20.12518,-33.78513 L 320.9136,230.49862 c 2.93564,-7.84619 5.22642,-15.92412 6.86312,-24.13696 l 24.1701,-8.42139 c 0.28421,-9.14707 0.54044,-30.83474 0.49733,-39.28886 l -23.73909,-7.75831 c -1.36151,-8.2129 -3.39028,-16.36297 -6.13371,-24.4022 l 16.64389,-19.32946 c -4.3274,-8.063663 -14.89927,-26.982491 -19.16367,-34.282412 l -24.46851,5.205358 c -5.39143,-6.571035 -11.25207,-12.58872 -17.50592,-18.06956 l 4.77434,-25.065304 C 275.07201,30.129887 256.40942,19.014076 249.06638,14.82435 l -18.60005,16.743346 c -7.86045,-2.944452 -15.90905,-5.257851 -24.13695,-6.896268 L 197.90797,0.5676237 C 188.76091,0.2834294 167.07324,-0.0391231 158.61912,0.0039959 Z m 17.20753,28.9444361 c 47.767,-0.07931 94.3534,23.123908 122.50829,64.950965 7.6782,1.681429 13.95496,2.332602 17.40645,1.160421 l 2.08879,3.580759 c -2.83206,2.486303 -5.5532,8.026483 -8.22248,15.118753 32.19461,68.51916 7.04097,151.50525 -59.71245,190.04534 C 179.47577,344.46139 89.300182,320.31387 48.643472,249.89439 7.9867674,179.47491 32.16742,89.365626 102.58692,48.70892 125.69331,35.36844 150.92372,28.98978 175.82665,28.948432 Z m 0.0331,5.304824 c -24.00231,0.04595 -48.32877,6.160942 -70.62048,19.031067 -67.936645,39.22324 -91.210524,126.021017 -51.98729,193.957657 39.223237,67.93665 126.05418,91.21052 193.99082,51.98728 62.79044,-36.25208 87.34972,-113.12983 59.74559,-178.20894 -2.2683,6.57565 -4.66555,13.89544 -7.6257,21.21928 -7.68838,19.02296 -19.22881,38.31536 -41.64286,43.66534 l -0.0994,0.0332 -0.0993,-4e-5 c -7.85,1.11436 -14.09755,0.79096 -19.22999,-0.2984 1.43197,0.30458 2.92789,0.55822 4.54226,0.72942 l -17.10832,9.8798 8.9519,5.17221 30.37011,-15.21823 5.70268,-2.81818 5.7027,11.37222 -5.70269,2.85135 -22.84389,11.43852 9.74761,5.63638 21.71663,-9.51553 5.8353,-2.55295 5.10589,11.67061 -5.86851,2.55301 -13.09628,5.73584 18.76581,10.84173 5.76899,3.34868 -6.63103,11.50484 -5.80215,-3.31553 -18.76581,-10.84173 1.59145,14.22356 0.69624,6.33264 -12.66525,1.42567 -0.69627,-6.33263 -2.61926,-23.54016 -9.71446,-5.63639 1.49199,25.49632 0.36471,6.36579 -12.69842,0.72942 -0.36472,-6.36579 -2.02247,-33.85141 -8.95188,-5.17221 -0.0663,30.70167 c 0.10981,2.33578 -1.18202,4.68178 -3.21605,5.8353 -2.03409,1.15348 -4.71596,1.0611 -6.66419,-0.23208 -0.0222,-0.0108 -0.0443,-0.0221 -0.0663,-0.0332 l -26.59043,-15.31769 10e-6,10.34442 28.34766,18.69951 5.30481,3.51445 -7.02888,10.60964 -5.30483,-3.51444 -21.31877,-14.05779 v 11.20645 l 19.09737,14.09093 5.1059,3.77968 -7.55938,10.27809 -5.1059,-3.77967 -11.53798,-8.52088 v 21.71663 l 0.0331,6.63103 h -13.32837 l -0.0331,-6.63103 v -21.68347 l -11.50484,8.48771 -5.13905,3.77969 -7.55937,-10.2781 5.13906,-3.74653 19.0642,-14.05779 v -11.23958 l -21.31875,14.05778 -5.30484,3.4813 -6.99573,-10.60966 5.30481,-3.5476 28.31451,-18.63319 v -10.34442 l -26.59047,15.28446 c -1.26179,0.7554 -2.79057,1.05387 -4.24386,0.82889 -3.15003,-0.39324 -5.72645,-3.46041 -5.57006,-6.63104 l -0.0332,-30.70172 -8.98505,5.17217 -1.98932,33.88457 -0.39786,6.33264 -12.69843,-0.72941 0.39787,-6.3658 1.49198,-25.49631 -9.71412,5.60382 -2.652402,23.57332 -0.69627,6.33263 -12.632115,-1.42567 0.663107,-6.29948 1.591443,-14.25672 -18.732606,10.84183 -5.769021,3.34864 -6.664207,-11.57114 5.769003,-3.3155 18.765979,-10.84147 -13.162593,-5.73584 -5.768991,-2.55294 5.072727,-11.67062 5.835311,2.55295 21.716634,9.51554 9.714461,-5.63636 -22.810745,-11.43853 -5.702691,-2.81819 5.66953,-11.40537 5.735836,2.85134 30.33697,15.18506 8.98507,-5.17217 -26.590449,-15.38401 c -1.991776,-1.02671 -3.361016,-3.16513 -3.448124,-5.40428 -0.0871,-2.23915 1.111152,-4.49109 3.017126,-5.66953 0.04387,-0.0334 0.08796,-0.0669 0.132604,-0.0994 0.05477,-0.0339 0.11014,-0.067 0.165894,-0.0992 0.07658,-0.0454 0.153843,-0.09 0.231989,-0.13279 l 26.59043,-15.38397 -8.95189,-5.17221 -30.370129,15.18506 -5.669523,2.85134 -5.669543,-11.37221 5.636383,-2.85134 22.877062,-11.43855 -9.714469,-5.60321 -21.749779,9.48238 -5.868459,2.55295 -5.072737,-11.67062 5.835297,-2.55295 13.129451,-5.73584 -18.79897,-10.84174 -5.735835,-3.31551 6.664178,-11.53799 5.735838,3.31551 18.798986,10.87489 -1.624623,-14.25672 -0.696247,-6.33262 12.665274,-1.425682 0.696249,6.332642 2.652406,23.5733 9.71447,5.63639 -1.49198,-25.52948 -0.36472,-6.33263 12.66529,-0.762566 0.39785,6.365786 1.98931,33.85142 8.98505,5.1722 0.0331,-30.70167 c -0.0347,-3.32218 2.94439,-6.38001 6.26633,-6.4321 1.27596,-0.0911 2.57745,0.2137 3.68021,0.86204 l 26.59043,15.31768 1e-5,-10.37758 -28.3145,-18.666343 -5.30483,-3.514439 6.99575,-10.609662 5.30482,3.514458 21.31876,14.057784 V 84.483949 l -19.06422,-14.05779 -5.13904,-3.77968 7.55937,-10.244948 5.1059,3.779672 11.53799,8.520887 1e-5,-21.683467 v -6.664204 l 13.32836,8e-6 1e-5,6.66419 v 21.683462 l 11.53798,-8.520871 5.13905,-3.746524 7.52623,10.211787 -5.1059,3.812844 -19.09737,14.057776 1e-5,11.206447 21.31876,-14.057785 5.30481,-3.481292 7.02889,10.642798 -5.30481,3.481292 -28.34765,18.699509 v 10.3444 l 15.31795,-8.85191 c 1.63158,-4.49225 4.27245,-9.40729 8.48773,-14.787199 l 0.0663,-0.06634 0.0663,-0.09947 c 7.95604,-8.406035 17.91074,-12.324582 28.38082,-13.560465 10.47006,-1.23587 21.51775,0.147357 32.09418,2.320874 8.23433,1.692197 16.15156,3.874691 23.30808,5.702678 C 263.07281,54.736088 220.0149,34.169678 175.86045,34.254194 Z M 294.19049,97.28122 c -8.44268,-2.023451 -17.97849,-4.768096 -27.85033,-6.796816 -7.76478,-1.595682 -15.7148,-2.741117 -23.30807,-2.718723 -2.53109,0.0074 -5.02228,0.143285 -7.45992,0.431025 -9.71704,1.146975 -18.53595,4.674745 -25.72838,12.234254 -12.30308,15.74887 -10.21068,25.45571 -9.34976,35.01184 0.43126,4.78706 0.61328,9.65774 -1.79038,14.58826 -1.28112,2.62791 -3.34282,5.2039 -6.29948,7.82463 l 14.09097,-8.12307 -0.0332,-38.02896 h 12.73158 l 0.0331,30.66851 8.95205,-5.17194 2.02246,-33.85141 0.36471,-6.365792 12.69841,0.762565 -0.3647,6.365797 -1.52514,25.49632 9.71448,-5.63637 2.6524,-23.57332 0.72942,-6.299476 12.63211,1.392515 -0.69625,6.332641 -1.59146,14.22355 18.79914,-10.84144 5.76901,-3.3155 6.66413,11.53802 -5.76901,3.34864 -18.53398,10.70868 12.66528,5.53691 5.8353,2.55295 -5.07274,11.67061 -5.86846,-2.5861 -21.25245,-9.28345 -9.7807,5.6365 22.44604,11.2396 5.66953,2.85133 -5.70269,11.37223 -5.70269,-2.85135 -29.87279,-14.98612 -9.01814,5.20546 26.19257,15.15191 -6.39894,11.00751 -32.52522,-18.83213 -15.6824,9.08449 c 4.10922,-1.52719 7.62043,-2.16284 10.74228,-2.05561 5.42343,0.18625 9.52342,2.50537 13.42783,5.03957 7.79416,5.05889 15.15644,11.30734 34.97869,8.52089 20.42679,-4.92687 31.12753,-22.55993 38.62575,-41.11239 3.53141,-8.73808 6.27683,-17.56752 9.01809,-25.26445 1.62888,-5.28787 6.92942,-15.483462 6.92942,-15.483462 M 196.61488,117.50585 c -0.15459,0.69248 -0.28513,1.38443 -0.39787,2.05563 0.11172,-0.67648 0.2433,-1.35736 0.39787,-2.05563 z m 29.80646,63.62473 c 0.33235,0.18626 0.68321,0.34777 1.02781,0.53048 z m 1.02783,0.53051 c 0.61227,0.3246 1.23528,0.65295 1.88984,0.9615 -0.64626,-0.30531 -1.28451,-0.64086 -1.88984,-0.9615 z m 1.88989,0.96149 c 0.6393,0.30133 1.30527,0.58191 1.98932,0.86204 -0.69182,-0.28381 -1.34307,-0.55673 -1.98932,-0.86204 z"
       id="path3047"
       inkscape:connector-curvature="0"
       sodipodi:nodetypes="cccccccccccccccccccccccccccccccccccccccccccccccccsccccssssssssccccccccccccccccccccccccccccccccccccccsccccccccccccccccccccccccccccccccccccccccccccccccccccccccccccccccccccccccccccccccccccccccccccccccccccccccccccccccccccccccccccccccccccccccccsscsscsccssccccccccccccccccccccccccccccccccccccccsscsccccccccccccccc"
       inkscape:label="path3047" /></g><g
     inkscape:label="Layer 1"
     inkscape:groupmode="layer"
     id="layer1"
     transform="translate(-204.30587,-77.244043)"
     style="display:inline"><circle
       style="display:inline;opacity:0.6;fill:#ffffff;fill-opacity:1;stroke:none;stroke-width:12.229;stroke-dasharray:none;stroke-opacity:1"
       id="path1"
       cx="380.53036"
       cy="253.50084"
       inkscape:label="path1"
       r="143.68275" /></g></svg>
